<svg id="Layer_1" enable-background="new 0 0 512 512" height="512" viewBox="0 0 512 512" width="512" xmlns="http://www.w3.org/2000/svg"><g><path d="m41.104 402.86 362.49 50.87c52.862-44.94 86.41-111.913 86.41-186.732 0-135.311-109.691-245.002-245.002-245.002s-245.002 109.691-245.002 245.002c0 50.261 15.144 96.979 41.104 135.862z" fill="#e80054"/><path d="m184.915 86.478c-.488 13.384 5.383 26.289 17.45 38.356 38.119 38.12 70.61 142.48 70.961 143.612.158.43 4.024 10.587 14.631 14.476 6.7 2.458 14.468 1.827 23.153-1.863 1.921-6.19 4.987-13.137 9.568-21.066 40.915-70.813-8.568-98.788-24.521-147.262-6.98-21.207-22.996-33.641-38.807-40.919-21.139-9.731-45.072-11.392-67.17-5.001-2.793 5.549-4.993 12.206-5.265 19.667z" fill="#56415e"/><path d="m308.417 390.253c45.453-59.79-14.087-60.123 3.349-111.192-28.108 12.782-36.978-11.157-36.978-11.157s-32.481-105.334-71.32-144.173c-22.674-22.674-18.552-43.822-11.195-57.501-5.301 1.404-10.506 3.26-15.551 5.582-15.81 7.278-31.827 19.712-38.806 40.919-15.953 48.473-65.436 76.449-24.521 147.262s-38.249 63.819 12.26 130.26h91.381z" fill="#45304c"/><path d="m254.174 311.748c0-5.106 0-3.576 0-6.882-8.901 7.958-24.167 18.097-36.738 18.401-.358-.009-.719-.028-1.082-.052-.359 7.673-2.985 28.583-20.446 41.441-.136.1-.272.207-.408.309.432.3.857.607 1.297.898 3.703 2.452 4.554 7.86 1.066 11.433-.24.375-1.907 1.599-.701 2.741 33.495 31.752 6.999 31.407 41.177-.597 1.561-1.461-1.216-2.238-2.117-5.488-1.397-5.063 2.949-8.006 3.024-8.096 12.915-8.549 21.7-20.513 26.83-34.867-7.213-5.6-11.902-12.016-11.902-19.241z" fill="#ffaa7b"/><path d="m217.865 323.247c-.143.006-.287.017-.429.021-12.572-.305-27.837-10.443-36.738-18.401v6.882c0 6.915-4.294 13.091-10.986 18.52 4.97 14.748 14.297 27.131 27.086 35.596 18.108-13.335 20.733-34.737 21.067-42.618z" fill="#fc9460"/><path d="m196.465 377.566-20.669 23.673c-4.521 5.208-12.823 4.279-16.088-1.801-3.074-5.724-6.777-12.985-10.514-21.176l11.984 119.017c20.999 7.646 43.341 12.491 66.573 14.107 0-27.159 0-60.882 0-78.228 0-23.839-20.784-45.943-31.286-55.592z" fill="#1e9ef4"/><path d="m197.531 364.756c-16.133-10.681-23.429-25.527-26.625-35.103-1.622-4.86-7.4-6.802-11.668-3.966-5.061 3.363-9.807 7.171-14.191 11.371 0 .019.003.036.003.055l4.228 41.986c3.694 8.077 7.354 15.258 10.423 20.97 3.699 6.886 13.135 7.948 18.26 2.046l21.301-24.398c3.454-3.957 2.648-10.062-1.731-12.961z" fill="#49b1f7"/><path d="m259.074 401.24-20.669-23.673c-10.503 9.649-31.287 31.753-31.287 55.592v75.924c12.348 1.917 24.998 2.918 37.883 2.918 9.251 0 18.377-.531 27.362-1.529l13.312-132.207c-3.737 8.191-7.44 15.452-10.514 21.175-3.264 6.079-11.565 7.008-16.087 1.8z" fill="#49b1f7"/><path d="m276.333 400.068c2.656-4.944 5.756-10.992 8.937-17.765l4.55-45.191c0-.353.06-.685.16-.998-4.103-3.826-8.507-7.319-13.184-10.427-4.268-2.836-10.045-.895-11.668 3.966-3.197 9.575-10.493 24.423-26.626 35.103-4.379 2.899-5.185 9.004-1.731 12.96l21.301 24.398c5.126 5.902 14.562 4.84 18.261-2.046z" fill="#73c3f9"/><path d="m122.829 417.36c-4.181-.476-20.282-1.493-32.68 9.042-5.746 4.884-9.796 11.521-12.148 19.809 16.215 15.117 34.464 28.08 54.323 38.384l-7.104-70.555c-.822 1.011-1.62 2.115-2.391 3.32z" fill="#d3dcfb"/><path d="m118.289 345.205c-5.502 2.784-10.635 5.509-14.869 7.811-6.226 3.385-12.726 6.24-19.465 8.434-12.012 3.911-29.141 13.082-39.853 34.506-1.07 2.14-2.064 4.455-2.997 6.904 10.902 16.328 23.731 31.252 38.132 44.494 9.162-34.122 44.354-28.379 44.354-28.379.609-1.003 1.226-1.92 1.847-2.766z" fill="#bec8f7"/><path d="m154.352 412.555c-2.704-2.359-9.02-6.961-16.422-6.183-5.517.58-10.414 4.017-14.581 10.207l6.729 66.832c10.544 5.611 21.546 10.472 32.936 14.516l-8.605-85.462c-.017.028-.039.062-.057.09z" fill="#deeeff"/><path d="m146.822 337.112c0-2.312-2.336-3.888-4.481-3.022-8.473 3.42-17.788 7.904-26.076 12.144l7.325 72.741c13.684-22.526 31.063-4.076 31.064-4.074z" fill="#d3dcfb"/><path d="m331.451 353.016c-4.041-2.198-8.903-4.781-14.121-7.432l-16.103 159.924c38.393-9.016 73.298-27.065 102.367-51.778-1.928-23.4-5.919-43.961-12.825-57.774-10.712-21.423-27.841-30.595-39.853-34.506-6.74-2.194-13.24-5.049-19.465-8.434z" fill="#d3dcfb"/><path d="m288.048 337.112-17.477 173.564c10.906-1.131 21.595-2.989 32.029-5.503l16.004-158.939c-8.288-4.24-17.603-8.723-26.076-12.144-2.144-.866-4.48.71-4.48 3.022z" fill="#deeeff"/><path d="m131.826 227.075c2.29 2.76 6.078 4.83 12.338 4.734-.183-.775-.37-1.538-.549-2.325 0 0-2.528-16.018-1.665-31.347-5.898 6.72-10.632 14.804-10.124 28.938z" fill="#fc9460"/><path d="m293.328 198.137c.863 15.328-1.665 31.346-1.665 31.346-.179.788-.366 1.55-.549 2.325 6.26.096 10.047-1.974 12.338-4.733.508-14.133-4.227-22.217-10.124-28.938z" fill="#ffaa7b"/><path d="m293.99 198.904c-9.052-10.652-21.307-17.556-21.307-38.469 0-53.035-51.817-34.078-51.817-34.078-2.081.798-4.373.798-6.454 0 0 0-5.704-2.085-13.326-2.937.102.104.198.208.302.311 0 0-42.127 124.761 39.559 191.673.305.25.591.498.888.747 12.019-7.468 21.932-17.582 29.051-29.766 9.211-15.761 16.399-34.862 21.372-56.809 1.142-7.252 2.321-19.31 1.732-30.672z" fill="#ffc7ab"/><path d="m164.391 286.386c9.352 16.005 23.515 28.453 40.957 35.999 7.812 3.379 16.77 3.379 24.581 0 4.605-1.992 8.973-4.335 13.092-6.986-81.678-66.913-39.553-191.668-39.553-191.668-15.205-2.289-40.874-.625-40.874 36.703 0 20.89-12.228 27.801-21.277 38.433-.641 11.555.514 23.801 1.71 30.749 4.964 21.904 12.152 41.004 21.364 56.77z" fill="#ffaa7b"/><path d="m481.482 0h-70.596l.139.162c-2.208 3.909-9.784 18.814-4.729 31.296 2.721 6.718 8.621 11.531 17.56 14.335-7.003 6.083-27.216 26.398-19.798 52.721 7.587 26.923 28.62 34.205 34.636 35.762-1.123 4.553-3.535 18.036 3.542 29.776 5.24 8.695 14.504 14.408 27.525 17.012 3.305-2.551 7.395-4.016 11.721-4.016 16.785 0 30.518-13.733 30.518-30.518v-116.012c0-16.785-13.733-30.518-30.518-30.518z" fill="#deeeff"/><path d="m323.706 0c-16.785 0-30.518 13.733-30.518 30.518v116.011c0 16.785 13.733 30.518 30.518 30.518h84.569c8.038 0 14.063 7.361 12.473 15.24l-4.753 23.566c-1.095 5.427 4.44 9.819 9.47 7.505 21.078-9.698 32.718-24.342 39.024-36.083 1.665-3.101 4.096-5.632 6.987-7.402-43.381-7.74-30.923-46.713-30.923-46.713s-26.363-4.213-35.054-35.054 21.529-52.978 21.529-52.978c-36.493-9.152-14.169-45.128-14.169-45.128z" fill="#bec8f7"/><g><path d="m329.579 133.161c-5.523 0-10-4.477-10-10v-69.978c0-4.376 2.846-8.245 7.024-9.547s8.718.263 11.205 3.865l24.119 34.926c3.139 4.544 1.999 10.772-2.546 13.911-4.544 3.138-10.773 1.999-13.911-2.546l-5.89-8.529v37.898c-.001 5.523-4.478 10-10.001 10z" fill="#ff4155"/></g><g><path d="m440.555 133.161c-24.843 0-45.054-20.211-45.054-45.054 0-5.523 4.477-10 10-10s10 4.477 10 10c0 13.815 11.239 25.054 25.054 25.054 5.523 0 10 4.477 10 10s-4.477 10-10 10z" fill="#e80054"/></g><g><path d="m405.501 98.106c-5.523 0-10-4.477-10-10 0-24.843 20.211-45.054 45.054-45.054 5.523 0 10 4.477 10 10s-4.477 10-10 10c-13.815 0-25.054 11.239-25.054 25.054 0 5.523-4.477 10-10 10z" fill="#ff4155"/></g><g><path d="m440.555 133.161c-5.523 0-10-4.477-10-10s4.477-10 10-10c13.815 0 25.054-11.239 25.054-25.054 0-5.523 4.477-10 10-10s10 4.477 10 10c0 24.842-20.211 45.054-45.054 45.054z" fill="#ff4155"/></g><g><path d="m377.802 132.384c-3.533 0-6.91-1.787-9.133-4.998l-23.2-33.594c-3.138-4.544-1.999-10.773 2.546-13.911 4.544-3.138 10.773-1.998 13.911 2.546l6.5 9.413-.374-38.69c-.053-5.522 4.38-10.043 9.903-10.096 5.549-.071 10.043 4.38 10.096 9.903l.655 67.746c.001 5.373-3.025 9.727-7.708 11.19-1.062.33-2.136.491-3.196.491z" fill="#ff7186"/></g><g><path d="m475.609 98.106c-5.523 0-10-4.477-10-10 0-13.815-11.239-25.054-25.054-25.054-5.523 0-10-4.477-10-10s4.477-10 10-10c24.843 0 45.054 20.211 45.054 45.054 0 5.523-4.477 10-10 10z" fill="#ff7186"/></g><path d="m79.859 152.281c18.348-31.675 16.36-57.376 10.038-74.933-54.872 44.93-89.897 113.197-89.897 189.65 0 22.176 2.952 43.66 8.477 64.088 15.475 2.676 37.869 1.486 58.049-18.693 35.276-35.277-30.667-84.151 13.333-160.112z" fill="#ff4155"/><path d="m361.859 284.391c-20.187 44.502 64.893 77.209 76.86 132.582 32.14-41.444 51.285-93.468 51.285-149.975 0-3.269-.083-6.518-.21-9.756-37.076-6.674-109.357-13.806-127.935 27.149z" fill="#ff4155"/><path d="m380.789 470.941c-2.278-12.31-7.403-22.015-12.754-29.234-5.316-7.171-16.697-3.426-16.697 5.501v40.537c10.229-4.938 20.073-10.547 29.451-16.804z" fill="#bec8f7"/></g></svg>