<svg id="Layer_1" enable-background="new 0 0 512 512" height="512" viewBox="0 0 512 512" width="512" xmlns="http://www.w3.org/2000/svg"><g><path d="m467.132 391.334c21.512-36.45 33.87-78.947 33.87-124.336 0-135.311-109.691-245.002-245.002-245.002s-245.002 109.691-245.002 245.002c0 45.389 12.358 87.886 33.87 124.337z" fill="#548bed"/><path d="m450.261 215.715h-285.947c.528.639 1.081 1.278 1.676 1.914-5.584 5.151-27.42 27.928-7.601 52.862l.178.224 22.597 12.986c-1.542 3.363-4.863 12.473-.509 21.263 4.208 8.496 14.278 14.077 29.953 16.606-4.304 6.709-15.501 28.655 4.98 50.419-2.567 1.942-7.479 6.495-8.363 13.413-.866 6.78 2.369 13.892 9.615 21.138l.139.123c.07.055 6.978 5.524 6.421 11.543-.323 3.49-3.142 6.638-8.378 9.356l-.271.18c-.968.809-23.708 20.092-23.329 45.429.183 12.215 5.779 23.663 16.615 34.129 15.511 3.078 31.547 4.7 47.963 4.7 89.921 0 168.514-48.453 211.132-120.666v-183.738c-3.98 4.941-10.071 8.119-16.871 8.119z" fill="#deeeff"/><path d="m44.868 207.596v183.739c35.298 59.808 95.271 103.318 165.92 116.501-42.885-39.012 4.924-78.943 4.924-78.943 19.379-10.055 2.189-23.413 2.189-23.413-20.95-20.95 0-33.261 0-33.261-25.747-25.747-4.683-51.776-4.683-51.776-47.532-6.505-30.08-37.337-30.08-37.337l-23.575-13.548c-21.77-27.389 8.596-51.843 8.596-51.843-.674-.674-1.29-1.34-1.872-2h-104.548c-6.8 0-12.891-3.178-16.871-8.119z" fill="#d3dcfb"/><path d="m460.767 181.82h-292.38c-.611.972-1.088 1.642-1.297 1.926-1.295.983-8.17 6.594-8.903 15.4-.514 6.177 2.111 12.389 7.804 18.482-.029.027-.062.058-.092.086h284.363c11.916 0 21.666-9.75 21.666-21.666v-17.146c-3.311 1.855-7.117 2.918-11.161 2.918z" fill="#d3dcfb"/><path d="m168.159 184.82s.853-1.101 1.992-3h-118.918c-4.044 0-7.85-1.063-11.16-2.918v17.146c0 11.916 9.75 21.666 21.666 21.666h106.42c-19.204-19.203 0-32.894 0-32.894z" fill="#bec8f7"/><g><path d="m101.124 68.738c-.321 0-.645-.017-.971-.052-4.942-.53-8.519-4.967-7.989-9.909.264-2.461.398-5.001.398-7.55 0-20.612-8.493-33.227-13.118-33.227-4.971 0-9-4.029-9-9s4.029-9 9-9c17.741 0 31.119 22.022 31.119 51.227 0 3.188-.168 6.374-.5 9.47-.496 4.615-4.399 8.041-8.939 8.041z" fill="#ffb332"/></g><g><path d="m145.362 68.738c-.321 0-.645-.017-.971-.052-4.942-.53-8.519-4.967-7.989-9.909.264-2.464.398-5.004.398-7.55 0-20.612-8.494-33.227-13.119-33.227-4.971 0-9-4.029-9-9s4.029-9 9-9c17.741 0 31.119 22.022 31.119 51.227 0 3.185-.168 6.371-.501 9.47-.495 4.615-4.398 8.041-8.937 8.041z" fill="#ffb332"/></g><g><path d="m189.599 68.738c-.321 0-.644-.017-.97-.052-4.942-.529-8.52-4.965-7.99-9.907.264-2.466.398-5.007.398-7.552 0-20.612-8.494-33.227-13.119-33.227-4.971 0-9-4.029-9-9s4.029-9 9-9c17.741 0 31.119 22.022 31.119 51.227 0 3.183-.168 6.369-.501 9.469-.493 4.616-4.397 8.042-8.937 8.042z" fill="#ffb332"/></g><g><path d="m365.762 68.738c-.321 0-.644-.017-.97-.052-4.942-.529-8.52-4.965-7.99-9.907.264-2.466.398-5.007.398-7.552 0-20.612-8.494-33.227-13.119-33.227-4.971 0-9-4.029-9-9s4.029-9 9-9c17.741 0 31.119 22.022 31.119 51.227 0 3.183-.168 6.369-.501 9.469-.494 4.616-4.397 8.042-8.937 8.042z" fill="#ffb332"/></g><g><path d="m409.999 68.738c-.321 0-.645-.017-.971-.052-4.942-.53-8.519-4.967-7.989-9.909.264-2.461.398-5.001.398-7.55 0-20.612-8.494-33.227-13.119-33.227-4.971 0-9-4.029-9-9s4.029-9 9-9c17.741 0 31.119 22.022 31.119 51.227 0 3.188-.168 6.374-.5 9.47-.495 4.615-4.398 8.041-8.938 8.041z" fill="#ffb332"/></g><g><path d="m454.237 68.738c-.321 0-.645-.017-.971-.052-4.942-.53-8.519-4.967-7.989-9.909.264-2.464.398-5.004.398-7.55 0-20.612-8.494-33.227-13.119-33.227-4.971 0-9-4.029-9-9s4.029-9 9-9c17.741 0 31.119 22.022 31.119 51.227 0 3.185-.168 6.371-.501 9.47-.495 4.615-4.398 8.041-8.937 8.041z" fill="#ffb332"/></g><path d="m460.767 55.827h-267.16c-4.01 1.499-9.342 4.345-12.215 9.46-2.527 4.5-2.66 9.855-.397 15.93l-13.98 30.013c-1.366 1.282-7.772 7.772-8.067 16.866-.203 6.268 2.539 12.291 8.151 17.902 6.794 6.795 8.872 15.181 6.174 24.926-1.866 6.741-5.489 11.878-6.183 12.822-.025.019-.066.052-.095.074h293.773c12.635 0 22.972-10.338 22.972-22.972v-82.049c0-12.635-10.338-22.972-22.973-22.972z" fill="#ff4155"/><path d="m28.26 78.799v82.049c0 12.635 10.337 22.972 22.972 22.972h117.642c3.098-4.538 14.531-23.636-.715-38.883-17.425-17.425.089-32.803.089-32.803l14.375-30.861c-8.377-21.174 16.414-25.447 16.414-25.447h-147.804c-12.635.001-22.973 10.338-22.973 22.973z" fill="#e80054"/><path d="m343.841 184.82h-175.682c-8.464 0-15.389-6.925-15.389-15.389v-9.104c0-8.464 6.925-15.389 15.389-15.389h175.682c8.464 0 15.389 6.925 15.389 15.389v9.104c0 8.464-6.925 15.389-15.389 15.389z" fill="#ff7186"/><g><path d="m223.874 283.558h-64.311c-3.866 0-7-3.134-7-7s3.134-7 7-7h64.311c3.866 0 7 3.134 7 7s-3.134 7-7 7z" fill="#49b1f7"/></g><path d="m413.999 315.397-137.828-52.276c-12.996-4.929-27.346-4.929-40.342 0l-54.745 20.764c-1.572 3.493-4.71 12.434-.428 21.079 4.208 8.496 14.278 14.077 29.953 16.606-.15.233-.309.489-.474.759 12.973-1.779 28.224-2.967 45.866-2.967 49.62 0 80.427 9.375 94.375 14.964 3.894 1.56 6.411 5.269 6.411 9.447v21.589l57.213-21.7c13.005-4.933 13.005-23.332-.001-28.265z" fill="#3c58a0"/><path d="m183.138 283.106-85.137 32.291c-13.006 4.933-13.006 23.332 0 28.265l57.213 21.7v-21.589c0-4.178 2.517-7.887 6.411-9.447 9.232-3.699 25.857-9.055 50.427-12.256.703-1.055 1.166-1.629 1.166-1.629-47.532-6.503-30.08-37.335-30.08-37.335z" fill="#2a428c"/><path d="m348.079 406.742c-35.893-15.905-68.39.477-83.366 10.523-5.268 3.534-12.158 3.534-17.426 0-7.574-5.08-19.633-11.775-34.341-15.101 1.136 1.452 2.429 2.912 3.894 4.377l.139.123c.07.055 6.978 5.524 6.421 11.543-.323 3.49-3.142 6.638-8.378 9.356l-.271.18c-.105.088-.478.405-1.038.911 12.185 1.514 26.263 2.501 42.288 2.501 50.472 0 81.704-9.773 94.926-15.071 4.43-1.775 7.342-6.051 7.342-10.823v-5.215c-.001 5.245-5.393 8.821-10.19 6.696z" fill="#2a428c"/><path d="m217.9 405.479c-.928-.928-1.77-1.838-2.539-2.732-14.881-3.805-32.695-4.312-51.441 3.994-4.797 2.125-10.189-1.451-10.189-6.697v5.215c0 4.773 2.912 9.048 7.342 10.823 9.251 3.707 27.332 9.601 54.639 12.809 19.378-10.054 2.188-23.412 2.188-23.412z" fill="#3c58a0"/><path d="m350.926 332.95c-13.222-5.298-44.454-15.071-94.926-15.071-18.535 0-34.465 1.32-47.872 3.251.813.154 1.634.304 2.48.44-4.304 6.709-15.501 28.655 4.98 50.419-.414.313-.892.701-1.401 1.149 16.896 4.762 30.047 13.272 36.801 18.294 2.974 2.211 7.05 2.211 10.024 0 13.628-10.134 53.299-34.479 97.256-13.546v-34.112c0-4.773-2.912-9.049-7.342-10.824z" fill="#4f71b6"/><path d="m161.074 332.95c-4.43 1.775-7.342 6.051-7.342 10.823v34.112c22.924-10.917 44.68-9.517 62.187-4.242 1.157-.939 1.982-1.425 1.982-1.425-25.703-25.703-4.756-51.685-4.684-51.774-25.916 3.266-43.177 8.914-52.143 12.506z" fill="#3c58a0"/><path d="m261.012 389.388c-2.974 2.211-7.05 2.211-10.024 0-6.646-4.942-19.487-13.261-35.995-18.064.202.221.387.443.596.665-2.567 1.942-7.479 6.495-8.363 13.413-.794 6.215 1.868 12.709 7.897 19.329 13.72 3.468 24.969 9.75 32.165 14.577 5.268 3.534 12.158 3.534 17.426 0 14.977-10.046 47.473-26.428 83.366-10.523 4.797 2.126 10.189-1.451 10.189-6.697v-26.246c-43.958-20.933-83.628 3.412-97.257 13.546z" fill="#ffdd40"/><path d="m153.732 375.842v26.246c0 5.247 5.392 8.823 10.189 6.697 19.825-8.785 38.607-7.713 53.98-3.306-20.95-20.95 0-33.261 0-33.261-17.833-5.769-40.372-7.709-64.169 3.624z" fill="#ffb332"/><g><path d="m119.589 397.159c-3.866 0-7-3.134-7-7v-73.626c0-25.902 21.073-46.975 46.975-46.975 3.866 0 7 3.134 7 7s-3.134 7-7 7c-18.182 0-32.975 14.792-32.975 32.975v73.626c0 3.866-3.134 7-7 7z" fill="#73c3f9"/></g><g fill="#cc0053"><ellipse cx="79.415" cy="93.354" rx="18.78" ry="18.78" transform="matrix(.924 -.383 .383 .924 -29.68 37.497)"/><ellipse cx="123.831" cy="93.354" rx="18.78" ry="18.78" transform="matrix(.914 -.407 .407 .914 -27.262 58.427)"/><ellipse cx="168.248" cy="93.354" rx="18.78" ry="18.78" transform="matrix(.73 -.683 .683 .73 -18.389 140.139)"/><ellipse cx="343.338" cy="93.354" rx="18.78" ry="18.78" transform="matrix(.228 -.974 .974 .228 174.188 406.378)"/><ellipse cx="387.755" cy="93.354" rx="18.78" ry="18.78" transform="matrix(.922 -.387 .387 .922 -5.907 157.38)"/><ellipse cx="432.172" cy="93.354" rx="18.78" ry="18.78" transform="matrix(.922 -.387 .387 .922 -2.444 174.574)"/></g><g><path d="m79.444 102.453c-17.741 0-31.119-22.022-31.119-51.227s13.378-51.226 31.119-51.226c4.971 0 9 4.029 9 9s-4.029 9-9 9c-4.625 0-13.119 12.615-13.119 33.227s8.494 33.227 13.119 33.227c4.971 0 9 4.029 9 9 0 4.97-4.03 8.999-9 8.999z" fill="#ffdd40"/></g><g><path d="m123.681 102.453c-17.741 0-31.119-22.022-31.119-51.227s13.378-51.226 31.119-51.226c4.971 0 9 4.029 9 9s-4.029 9-9 9c-4.625 0-13.119 12.615-13.119 33.227s8.494 33.227 13.119 33.227c4.971 0 9 4.029 9 9 0 4.97-4.029 8.999-9 8.999z" fill="#ffdd40"/></g><g><path d="m167.919 102.453c-17.741 0-31.119-22.022-31.119-51.227s13.378-51.226 31.119-51.226c4.971 0 9 4.029 9 9s-4.029 9-9 9c-4.625 0-13.119 12.615-13.119 33.227s8.494 33.227 13.119 33.227c4.971 0 9 4.029 9 9 0 4.97-4.03 8.999-9 8.999z" fill="#ffdd40"/></g><g><path d="m344.081 102.453c-17.741 0-31.119-22.022-31.119-51.227s13.379-51.226 31.119-51.226c4.971 0 9 4.029 9 9s-4.029 9-9 9c-4.625 0-13.119 12.615-13.119 33.227s8.494 33.227 13.119 33.227c4.971 0 9 4.029 9 9 0 4.97-4.029 8.999-9 8.999z" fill="#ffdd40"/></g><g><path d="m388.319 102.453c-17.741 0-31.119-22.022-31.119-51.227s13.378-51.226 31.119-51.226c4.971 0 9 4.029 9 9s-4.029 9-9 9c-4.625 0-13.119 12.615-13.119 33.227s8.494 33.227 13.119 33.227c4.971 0 9 4.029 9 9 0 4.97-4.03 8.999-9 8.999z" fill="#ffdd40"/></g><g><path d="m432.556 102.453c-17.741 0-31.119-22.022-31.119-51.227s13.378-51.226 31.119-51.226c4.971 0 9 4.029 9 9s-4.029 9-9 9c-4.625 0-13.119 12.615-13.119 33.227s8.494 33.227 13.119 33.227c4.971 0 9 4.029 9 9 0 4.97-4.029 8.999-9 8.999z" fill="#ffdd40"/></g><g><path d="m119.588 444.499c-7.37 0-13.345-5.974-13.345-13.345v-31.11c0-7.37 5.974-13.345 13.345-13.345 7.37 0 13.345 5.974 13.345 13.345v31.11c0 7.371-5.974 13.345-13.345 13.345z" fill="#ffb332"/></g></g></svg>