<svg id="Layer_1" enable-background="new 0 0 512 512" height="512" viewBox="0 0 512 512" width="512" xmlns="http://www.w3.org/2000/svg"><g><path d="m256 21.996c-135.311 0-245.002 109.691-245.002 245.002 0 94.064 53.019 175.731 130.794 216.789h228.417c77.775-41.058 130.793-122.726 130.793-216.789 0-135.311-109.691-245.002-245.002-245.002z" fill="#816ae2"/><path d="m396.597 182.364c-37.101-3.41-51.347-35.399-51.789-35.89-.554 1.051-5.487 17.487-20.897 30.29-4.979 4.137-12.207 4.135-17.186 0-15.937-13.241-20.096-28.88-21.065-30.724-.902 1.715-5.281 17.611-21.066 30.724-4.979 4.135-12.207 4.135-17.186 0-15.935-13.238-20.097-28.881-21.066-30.724-.902 1.715-5.278 17.607-21.065 30.724-.117.097-.241.181-.361.273l-.072.273c-.952 1.532-6.153 10.511-3.919 20.387 1.319 5.828 4.96 10.779 10.831 14.737-.419.47-.904 1.053-1.406 1.726h153.747c2.69 0 5.332.216 7.912.623 9.172-22.007 28.231-31.268 28.968-32.016z" fill="#e8f4fc"/><path d="m214.112 212.161c-21.75-13.154-7.878-34.243-7.878-34.243l.675-2.56c-.532.471-1.073.941-1.633 1.406-4.979 4.135-12.207 4.135-17.186 0-15.845-13.164-20.056-28.695-20.897-30.29-.8.887-13.803 32.398-51.789 35.89l-4.38.403c.752.762 19.798 10.023 28.967 32.016 2.581-.407 5.223-.623 7.913-.623h64.356c1.038-1.263 1.852-1.999 1.852-1.999z" fill="#d3dcfb"/><path d="m225.387 290.789c1.359 1.082 2.897 2.106 4.618 3.067-1.354 3.948-4.805 16.248.306 27.085 3.18 6.744 9.07 11.609 17.52 14.475l-7.271 176.103c.051.003.102.007.153.01l.01-.018h30.557l.027.017c10.365-.64 20.555-1.928 30.531-3.818l-.001-.009 30.543-7.86c13.133-4.309 25.78-9.691 37.831-16.053v-192.999z" fill="#e8f4fc"/><path d="m141.792 483.788c12.051 6.362 24.697 11.745 37.831 16.053l30.543 7.86.009.011c9.979 1.89 20.17 3.178 30.538 3.817l.01-.018h1.34l7.314-177.171c-30.486-9.474-17.513-41.188-17.513-41.188-1.475-.765-2.778-1.556-3.946-2.363h-86.124v192.999z" fill="#d3dcfb"/><g><path d="m173.467 117.18v1.5c0 10.616-2.614 20.627-7.21 29.448 4.198 11.725 11.477 21.983 20.874 29.79 5.526 4.591 13.577 4.591 19.104 0 15.205-12.632 24.892-31.674 24.892-52.987 0-2.621-.154-5.205-.44-7.75h-57.22z" fill="#bec8f7"/></g><g><path d="m338.533 118.68v-1.5h-57.22c-.285 2.545-.44 5.129-.44 7.75 0 21.314 9.687 40.355 24.892 52.987 5.526 4.591 13.577 4.591 19.104 0 9.396-7.806 16.676-18.065 20.874-29.79-4.595-8.82-7.21-18.831-7.21-29.447z" fill="#d3dcfb"/></g><g><path d="m221.996 117.18c-.285 2.545-.44 5.129-.44 7.75 0 21.314 9.687 40.355 24.892 52.987 5.526 4.591 13.577 4.591 19.104 0 15.205-12.632 24.892-31.674 24.892-52.987 0-2.621-.154-5.205-.44-7.75z" fill="#d3dcfb"/></g><path d="m351.095 78.214h-128.84c.592.588 1.202 1.175 1.837 1.759-3.833 2.462-12.436 8.978-13.617 18.489-.838 6.756 2.259 13.551 9.184 20.219h119.374c0-14.436 4.706-27.788 12.652-38.623z" fill="#e8f4fc"/><path d="m160.315 80.057c7.946 10.835 12.652 24.187 12.652 38.623h48.879c-25.016-22.634 4.766-38.467 4.766-38.467-.771-.67-1.495-1.336-2.196-2h-63.512z" fill="#d3dcfb"/><path d="m221.419 25c.763.755 1.632 1.471 2.607 2.146-3.923 3.335-13.198 12.513-13.774 25.124-.436 9.537 4.22 18.85 13.841 27.703-.113.073-.244.161-.366.241h127.369c11.999-15.209 30.574-25 51.405-25l24.49-30.214z" fill="#d3dcfb"/><path d="m109.5 55.214c20.831 0 39.406 9.791 51.405 25h65.708c-33.5-29.101 0-53.214 0-53.214-1.122-.64-2.095-1.309-2.943-2h-138.661z" fill="#bec8f7"/><path d="m217.575 262.938c1.14.884 2.413 1.727 3.83 2.524-1.646 2.56-4.513 8.15-3.208 14.482 1.061 5.151 4.622 9.586 10.598 13.208h139.701c9.225 0 17.956-4.163 23.765-11.329l15.309-18.885z" fill="#d3dcfb"/><g fill="#bec8f7"><path d="m119.739 281.824c5.809 7.166 14.54 11.329 23.765 11.329h88.358c-22-11.412-8.25-28.214-8.25-28.214-1.283-.649-2.427-1.318-3.459-2h-115.723z"/><path d="m194.887 332.834c-8.438 0-15.278 6.84-15.278 15.278v151.725c9.922 3.253 20.122 5.888 30.557 7.864v-159.589c-.001-8.438-6.841-15.278-15.279-15.278z"/><path d="m256 332.834c-8.438 0-15.278 6.84-15.278 15.278v163.4c5.054.311 10.145.488 15.278.488s10.224-.177 15.278-.488v-163.4c0-8.438-6.84-15.278-15.278-15.278z"/></g><path d="m317.113 332.834c-8.438 0-15.278 6.84-15.278 15.278v159.589c10.435-1.975 20.635-4.61 30.557-7.864v-151.725c0-8.438-6.84-15.278-15.279-15.278z" fill="#d3dcfb"/><path d="m211.755 212.435c-2.12 2.378-5.905 7.547-5.295 13.6.469 4.648 3.403 8.769 8.729 12.269-.344.45-.74 1.002-1.15 1.636h195.358c-8.464-16.451-25.618-27.778-45.301-27.778h-152.717c.13.088.245.184.376.273z" fill="#d3dcfb"/><path d="m214.112 212.161h-66.209c-19.683 0-36.837 11.327-45.301 27.778h113.253c.89-1.261 1.59-2 1.59-2-19.333-11.377-3.333-25.778-3.333-25.778z" fill="#bec8f7"/><path d="m413.57 237.938h-198.914c.177.122.35.244.533.365-1.925 2.515-5.428 8.109-4.339 14.414.823 4.763 4.073 8.864 9.661 12.221h193.059c7.456 0 13.5-6.044 13.5-13.5s-6.044-13.5-13.5-13.5z" fill="#e8f4fc"/><path d="m98.43 237.938c-7.456 0-13.5 6.044-13.5 13.5s6.044 13.5 13.5 13.5h125.182c-21.5-10.876-6.167-27-6.167-27z" fill="#d3dcfb"/><path d="m432.991 0h-208.443c-2.388 2.651-8.053 9.816-7.108 17.24.486 3.826 2.64 7.098 6.393 9.76h209.159c7.456 0 13.5-6.044 13.5-13.5-.001-7.456-6.045-13.5-13.501-13.5z" fill="#e8f4fc"/><path d="m226.612 0h-147.603c-7.456 0-13.5 6.044-13.5 13.5s6.044 13.5 13.5 13.5h147.604c-17.501-9.981-.001-27-.001-27z" fill="#d3dcfb"/><g><path d="m109.5 184.148c-36.099 0-65.467-29.368-65.467-65.467s29.368-65.467 65.467-65.467 65.467 29.368 65.467 65.467c0 36.098-29.368 65.467-65.467 65.467z" fill="#d3dcfb"/></g><g><path d="m402.5 184.148c-36.099 0-65.467-29.368-65.467-65.467s29.368-65.467 65.467-65.467 65.467 29.368 65.467 65.467c0 36.098-29.368 65.467-65.467 65.467z" fill="#e8f4fc"/></g><circle cx="109.5" cy="118.681" fill="#bec8f7" r="38.467"/><circle cx="402.5" cy="118.681" fill="#d3dcfb" r="38.467"/><path d="m501.002 266.998c0-31.091-5.805-60.822-16.367-88.188-20.138 8.748-46.156 28.289-34.275 69.19 18.084 62.254-47.715 57.648-47.715 112.648 0 32.988 21.068 55.06 37.933 67.447 37.626-43.066 60.424-99.416 60.424-161.097z" fill="#9181f2"/><path d="m10.998 266.998c0-31.091 5.805-60.822 16.367-88.188 20.138 8.748 46.157 28.289 34.275 69.19-18.084 62.254 47.715 57.648 47.715 112.648 0 32.988-21.068 55.06-37.933 67.447-37.626-43.066-60.424-99.416-60.424-161.097z" fill="#9181f2"/></g></svg>