<svg id="Layer_1" enable-background="new 0 0 512 512" height="512" viewBox="0 0 512 512" width="512" xmlns="http://www.w3.org/2000/svg"><g><path d="m417.807 83.046c-3.408-23.219-23.404-41.046-47.569-41.046-4.525 0-8.899.639-13.05 1.807-30.845-14.006-65.105-21.811-101.188-21.811-36.966 0-72.011 8.203-103.438 22.862-4.612-1.837-9.638-2.858-14.906-2.858-21.582 0-39.202 16.96-40.263 38.278-52.853 44.94-86.396 111.908-86.396 186.72 0 94.252 53.231 176.059 131.261 217.036l101.299 27.653c4.123.207 8.27.313 12.443.313s8.32-.106 12.442-.312l101.299-27.653c78.03-40.977 131.262-122.784 131.262-217.036-.001-73.292-32.193-139.055-83.196-183.953z" fill="#2a428c"/><g><path d="m147.03 197.958c-13.256 0-26.688-2.726-39.607-8.299-36.786-15.87-59.639-50.617-59.639-90.68 0-13.061 10.588-23.65 23.65-23.65s23.65 10.588 23.65 23.649c0 21.192 11.617 38.855 31.075 47.25 19.459 8.395 40.281 4.725 55.694-9.817 9.501-8.963 24.469-8.526 33.432.976 8.962 9.501 8.526 24.469-.975 33.432-18.909 17.836-42.792 27.139-67.28 27.139z" fill="#548bed"/></g><g><path d="m313.916 177.265c-5.822 0-11.655-2.136-16.225-6.446l-115.838-109.273c-9.501-8.963-9.937-23.931-.975-33.432 8.964-9.5 23.93-9.937 33.432-.975l115.839 109.272c9.501 8.963 9.937 23.931.975 33.432-4.653 4.932-10.924 7.422-17.208 7.422z" fill="#548bed"/></g><path d="m18.583 185.387c9.487-1.948 17.823 4.66 20.788 13.879 7.391 22.985 22.352 64.625 22.352 64.625l.003.003c.335-2.678 1.463-5.399 3.654-8.101 6.708-8.274 22.182-3.479 38.244 5.168 27.791 13.15 35.627 20.259 51.775 21.927 8.494.877 22.511 3.645 39.512 11.999 27.958 13.74 43.931 48.971 43.907 76.307-.007 8.098-2.949 31.212-1.82 39.231.007.05.014.099.021.149.289 2.067.534 3.823.747 5.343-.233-.021-.469-.031-.708-.026l-94.705 2.205-1.943-13.963c-.43-3.089-2.615-5.653-5.605-6.537-17.017-5.028-48.399-25.328-77.589-48.946-23.177-18.75-44.96-96.804-52.6-140.224-1.901-10.798 3.263-20.841 13.967-23.039z" fill="#ffc7ab"/><path d="m60.682 264.081 1.04-.189.003.003c.336-2.678 1.463-5.399 3.654-8.101 2.492-3.073 6.196-4.34 10.689-4.279 0 0 23.546 9.268 12.315 25.497-6.471 9.349-16.55 4.462-23.933-1.362-2.759-5.124-3.571-9.25-3.765-11.565z" fill="#fce0d4"/><path d="m46.011 259.993c.22-2.179 1.455-11.188 7.116-20.34 4.752 13.542 8.596 24.239 8.596 24.239l.003.003c.529 6.322 5.6 26.088 42.564 42.997 42.429 19.409 42.608 19.895 43.995 23.67 2.8 7.63-6.18 14.038-12.495 9.168-1.269-.734-7.885-4.303-38.208-18.174-54.369-24.872-52.001-57.981-51.571-61.563z" fill="#ffaa7b"/><path d="m229.573 332.348-.292-.044s-2.172 68.102-94.476 65.292c2.99.884 5.176 3.448 5.605 6.537l1.849 79.902c30.537 16.037 64.866 25.831 101.299 27.653l-5.629-101.431c-1.129-8.019.884-30.963.891-39.062.012-12.247-3.198-26.074-9.247-38.847z" fill="#ffaa7b"/><path d="m493.417 185.387c-9.487-1.948-17.824 4.66-20.788 13.879-7.391 22.985-22.352 64.625-22.352 64.625l-.003.003c-.336-2.678-1.464-5.399-3.654-8.101-6.708-8.274-22.182-3.479-38.244 5.168-27.792 13.15-35.627 20.259-51.775 21.927-8.494.877-22.511 3.645-39.512 11.999-27.958 13.74-43.931 48.971-43.907 76.307.007 8.098 2.949 31.212 1.82 39.231-.007.05-.014.099-.021.149-.289 2.067-.534 3.823-.747 5.343.233-.021.469-.031.708-.026l94.706 2.205 1.943-13.963c.43-3.089 2.615-5.653 5.605-6.537 17.017-5.028 48.399-25.328 77.589-48.946 23.174-18.75 44.957-96.804 52.597-140.223 1.903-10.799-3.261-20.842-13.965-23.04z" fill="#ffc7ab"/><path d="m451.318 264.081-1.04-.189-.003.003c-.336-2.678-1.464-5.399-3.654-8.101-2.492-3.073-6.196-4.34-10.689-4.279 0 0-23.546 9.268-12.315 25.497 6.471 9.349 16.55 4.462 23.933-1.362 2.759-5.124 3.571-9.25 3.765-11.565z" fill="#fce0d4"/><path d="m465.989 259.993c-.22-2.179-1.455-11.188-7.116-20.34-4.753 13.542-8.596 24.239-8.596 24.239l-.003.003c-.529 6.322-5.6 26.088-42.564 42.997-42.429 19.409-42.608 19.895-43.994 23.67-2.801 7.63 6.179 14.038 12.494 9.168 1.269-.734 7.884-4.303 38.208-18.174 54.369-24.872 52.001-57.981 51.571-61.563z" fill="#ffaa7b"/><path d="m268.442 511.688c36.433-1.822 70.762-11.616 101.299-27.653l1.849-79.902c.43-3.089 2.615-5.653 5.605-6.537-92.304 2.81-94.476-65.292-94.476-65.292l-.292.044c-6.049 12.773-9.258 26.6-9.247 38.846.007 8.099 2.02 31.043.891 39.062z" fill="#ffaa7b"/><g><path d="" fill="#72aafc"/></g><g><path d="m198.085 177.265c-6.285 0-12.555-2.489-17.208-7.421-8.962-9.502-8.526-24.469.975-33.432l115.839-109.273c9.501-8.963 24.469-8.526 33.432.975 8.962 9.501 8.526 24.469-.975 33.432l-115.838 109.272c-4.569 4.31-10.404 6.447-16.225 6.447z" fill="#72aafc"/></g><g><path d="m364.97 197.958c-24.491 0-48.368-9.302-67.279-27.14-9.501-8.963-9.937-23.931-.975-33.432 8.964-9.502 23.933-9.936 33.432-.975 15.414 14.542 36.235 18.212 55.694 9.817 19.459-8.394 31.075-26.057 31.075-47.249 0-13.061 10.588-23.65 23.65-23.65s23.65 10.588 23.65 23.649c0 40.064-22.852 74.811-59.64 90.681-12.916 5.573-26.353 8.299-39.607 8.299z" fill="#72aafc"/></g><g><path d="m313.924 67.993c-6.285 0-12.555-2.489-17.208-7.422-8.962-9.501-8.526-24.469.975-33.431 16.29-15.367 36.369-24.576 58.065-26.634 20.177-1.91 40.309 2.393 58.236 12.448 11.391 6.39 15.446 20.804 9.057 32.196-6.389 11.393-20.803 15.447-32.197 9.057-15.309-8.587-40.394-11.818-60.703 7.34-4.57 4.309-10.404 6.446-16.225 6.446z" fill="#72aafc"/></g><g><path d="m440.568 122.628c-13.062 0-23.65-10.589-23.65-23.65 0-19.162-9.501-35.481-26.065-44.772-11.392-6.39-15.447-20.805-9.057-32.196 6.391-11.391 20.807-15.446 32.196-9.056 31.45 17.64 50.226 49.8 50.226 86.025-.001 13.061-10.589 23.649-23.65 23.649z" fill="#8bbffc"/></g><g><path d="m71.433 122.628c-13.062 0-23.65-10.589-23.65-23.65 0-40.064 22.852-74.81 59.639-90.68 36.789-15.87 77.745-8.648 106.887 18.841 9.501 8.963 9.937 23.931.975 33.432-8.964 9.501-23.931 9.938-33.432.975-15.417-14.542-36.237-18.212-55.694-9.818-19.459 8.394-31.075 26.058-31.075 47.25 0 13.062-10.588 23.65-23.65 23.65z" fill="#8bbffc"/></g><ellipse cx="256" cy="242.457" fill="#3c58a0" rx="70.522" ry="39.791"/></g></svg>