<svg id="Layer_1" enable-background="new 0 0 512 512" height="512" viewBox="0 0 512 512" width="512" xmlns="http://www.w3.org/2000/svg"><g><path d="m256 21.996c-135.311 0-245.002 109.691-245.002 245.002 0 82.322 40.604 155.158 102.874 199.582l83.934 38.447c18.655 4.546 38.14 6.973 58.194 6.973 135.311 0 245.002-109.691 245.002-245.002s-109.691-245.002-245.002-245.002z" fill="#ffdd40"/><path d="m327.996 198.907c15.074-19.566 24.054-44.057 24.054-70.609 0-63.919-52.001-115.92-115.92-115.92-2.494 0-4.968.092-7.421.256l5.572 11.727c-2.949 2.616-11.869 11.394-11.031 21.178.516 6.027 4.605 11.199 12.155 15.37 3.976 2.197 6.648 6.285 8.335 11.594 27.468 3.729 48.712 27.321 48.712 55.795 0 31.056-25.266 56.322-56.322 56.322h-4.211c-16.457 0-29.798 13.341-29.798 29.798s13.341 29.798 29.798 29.798l33.101.05c48.04.137 87.01 39.332 86.873 87.373-.121 42.238-30.549 77.982-71.475 85.441l7.595 10.492c-2.276 2.792-8.354 11.288-5.925 19.797 1.896 6.639 8.462 11.546 19.517 14.584 3.795 1.043 6.497 3.421 8.262 7.271.23.502.436 1.031.63 1.572 55.875-18.716 100.798-70.696 100.993-138.988.172-59.529-34.862-109.651-83.494-132.901z" fill="#7255ce"/><path d="m302.005 460.508c-33.858-9.306-12.081-32.858-12.081-32.858l-7.876-10.88c-5.651 1.141-11.51 1.743-17.524 1.743-43.193-.123-78.241-34.858-78.675-78.107v-218.147c0-27.726 22.557-50.284 50.284-50.284 3.124 0 6.185.267 9.171.758-1.778-6.006-4.698-10.665-9.171-13.137-25.731-14.218-.001-34.841-.001-34.841l-5.808-12.224c-57.899 3.03-104.071 51.087-104.071 109.727 0 25.519-.005 272.667-.001 352.581 18.312 11.456 38.245 20.557 59.379 26.884.132-2.057.219-4.124.219-6.206v-28.062c0-5.924 6.379-9.638 11.542-6.732 36.66 20.635 78.004 22.224 114.519 9.584-1.763-4.935-4.913-8.426-9.906-9.799z" fill="#5f48c1"/><g fill="#816ae2"><path d="m302.004 460.508c-33.699 9.983-68.697 6.229-98.544-10.571-13.41-7.548-29.99 2.113-29.99 17.519v28.061c0 .737-.027 1.469-.046 2.202 7.946 2.844 16.081 5.286 24.382 7.308.274-3.143.42-6.314.42-9.51v-20.35c34.15 16.965 73.195 20.219 110.81 9.077 6.554-1.942 10.294-8.829 8.352-15.384-1.941-6.554-8.828-10.294-15.384-8.352z"/><path d="m236.132 84.352c6.836 0 12.378-5.541 12.378-12.378 0-6.836-5.542-12.378-12.378-12.378-34.552 0-62.662 28.11-62.662 62.662v218.148c0 .041 0 .083.001.124.503 50.09 41.049 90.218 91.052 90.36 8.616 0 17.162-1.091 25.401-3.241 6.614-1.726 10.577-8.487 8.851-15.102-1.726-6.614-8.491-10.576-15.102-8.851-6.199 1.618-12.642 2.438-19.114 2.438-36.462-.104-65.937-29.367-66.333-65.795v-218.081c0-20.902 17.004-37.906 37.906-37.906z"/><path d="m138.628 482.1c-.004-69 .001-327.264.001-359.842 0-53.763 43.739-97.503 97.502-97.503 6.836 0 12.378-5.542 12.378-12.378-.001-6.835-5.542-12.377-12.378-12.377-67.413 0-122.257 54.845-122.257 122.258 0 30.488-.004 258.608-.002 344.322 7.914 5.646 16.18 10.831 24.756 15.52z"/></g><g><path d="m286.79 428.054c-5.497.001-10.515-3.688-11.968-9.255-1.726-6.614 2.236-13.376 8.851-15.102 32.784-8.556 55.749-38.202 55.845-72.092.118-41.216-33.317-74.843-74.531-74.961l-33.085-.05c-23.237 0-42.157-18.92-42.157-42.176s18.92-42.176 42.176-42.176h4.211c24.231 0 43.944-19.713 43.944-43.943 0-24.232-19.714-43.946-43.944-43.946-6.836 0-12.378-5.541-12.378-12.378 0-6.836 5.542-12.378 12.378-12.378 37.881 0 68.7 30.819 68.7 68.702 0 37.881-30.819 68.699-68.7 68.699h-4.211c-9.606 0-17.421 7.815-17.421 17.421s7.815 17.421 17.421 17.421l33.12.05c54.881.157 99.389 44.92 99.233 99.786-.129 45.117-30.702 84.584-74.349 95.976-1.049.272-2.101.402-3.135.402z" fill="#9181f2"/></g><g><path d="m334.874 79.99c-4.151 0-8.206-2.088-10.546-5.881-19.065-30.903-52.036-49.354-88.197-49.354-6.836 0-12.378-5.542-12.378-12.378 0-6.835 5.541-12.377 12.378-12.377 44.501 0 85.811 23.092 109.266 61.112 3.59 5.818 1.783 13.444-4.035 17.033-2.026 1.249-4.271 1.845-6.488 1.845z" fill="#9181f2"/></g><g><path d="m305.515 484.758c-5.341 0-10.269-3.484-11.863-8.866-1.941-6.554 1.798-13.441 8.353-15.384 55.365-16.4 96.931-66.301 97.109-128.734.02-6.824 5.558-12.342 12.377-12.342h.036c6.836.02 12.362 5.577 12.342 12.414-.211 73.695-49.301 132.988-114.835 152.399-1.171.347-2.355.513-3.519.513z" fill="#9181f2"/></g><g><path d="m411.493 344.188c-.012 0-.024 0-.036 0-6.836-.02-12.362-5.577-12.342-12.414.153-53.389-30.871-99.906-76.457-121.699-7.109-3.399-9.267-12.491-4.467-18.722 14.054-18.241 21.482-40.044 21.482-63.055 0-19.179-5.306-37.917-15.345-54.189-3.59-5.817-1.783-13.444 4.035-17.033 5.818-3.591 13.444-1.784 17.033 4.035 12.451 20.181 19.032 43.414 19.032 67.187 0 23.658-6.332 46.283-18.43 66.214 46.777 27.809 78.039 78.976 77.872 137.333-.02 6.824-5.558 12.343-12.377 12.343z" fill="#a49bf9"/></g><ellipse cx="265.696" cy="328.394" fill="#ffe98d" rx="44.079" ry="44.079" transform="matrix(.23 -.973 .973 .23 -114.958 511.533)"/><path d="m57.051 410c2.214-3.228 4.228-6.468 6.061-9.686 12.18-21.39 18.251-45.716 18.251-70.331v-102.669c0-41.898-16.586-71.632-32.808-90.701-23.784 37.761-37.556 82.462-37.556 130.385-.001 53.376 17.074 102.761 46.052 143.002z" fill="#ffe98d"/><path d="m501.002 266.998c0-66.663-26.637-127.096-69.832-171.269-26.064 30.224-46.183 73.845-10.225 120.523 49.427 64.161 55.583 131.251 37.613 188.597 26.779-39.274 42.444-86.731 42.444-137.851z" fill="#ffe98d"/></g></svg>