<svg id="Layer_1" enable-background="new 0 0 512 512" height="512" viewBox="0 0 512 512" width="512" xmlns="http://www.w3.org/2000/svg"><g><path d="m247.59 6.358s-213.904 56.665-213.904 259.461c0 202.767 214.305 230.463 214.368 230.471 133.902-1.637 241.951-110.673 241.951-244.963-.001-134.445-108.299-243.578-242.415-244.969z" fill="#47354f"/><g><path d="m424.748 61.772c3.142-11.72-3.837-23.811-15.557-26.955-11.718-3.14-23.812 3.839-26.953 15.558l-18.572 69.271 23.174 83.522z" fill="#e80054"/></g><path d="m71.277 99.264c6.037 5.499 15.239 6.82 27.356 3.93.19-.045.391-.08.59-.117 19.434-19.26 45.629-31.215 75.137-34.093 58.555-5.712 112.055 26.797 129.014 89.145l4.049 14.887c.44-5.649.106-10.88-1.037-15.658-2.444-10.213-1.31-18.163 3.372-23.629 8.008-9.351 24.098-8.791 26.232-8.668l2.756 1.191c-.219-.79-.436-1.572-.657-2.367-27.935-67.191-93.88-105.929-168.002-98.704-11.816 1.152-23.292 3.445-34.292 6.789-27.052 13.494-51.255 31.842-71.472 53.904.895 4.607 2.85 9.652 6.954 13.39z" fill="#e80054"/><path d="m337.006 381.273.225-.518-21.942-80.669-11.913 44.432c-36.061 132.395-228.993 113.57-238.771-23.65-2.669-37.461-2.231-107.791 0-139.09 2.381-33.413 15.791-60.87 36.371-80.403-.974.049-1.876.164-2.691.359-24.445 5.833-31.064-7.175-32.669-17.25-14.211 15.27-26.502 32.351-36.473 50.87-4.449 13.463-7.345 27.933-8.439 43.297-2.613 36.672-2.613 108.666 0 145.345 1.092 15.332 3.894 29.582 8.136 42.728 23.842 44.566 61.058 80.894 106.291 103.629 74.756 23.193 164.96-3.942 201.875-89.08z" fill="#cc0053"/><g><path d="m304.929 157.706c.802 3.351 1.165 6.852 1.173 10.447l69.265 254.649c8.888 32.677 38.747 55.5 72.611 55.5h14.643c12.134 0 22.006-9.872 22.006-22.006s-9.872-22.006-22.006-22.006h-14.643c-14.057 0-26.452-9.473-30.145-23.047.002.007.004.014.005.019-.002-.007-.005-.019-.01-.035.001.003.001.005.002.008-.002-.007-.003-.012-.004-.016-.001-.003-.001-.005-.002-.008v-.001c-.32-1.155-5.837-21.033-79.591-286.816l-1.885-.814c0-.001-40.378-3.311-31.419 34.126z" fill="#ff4155"/></g><g fill="#ff4155"><path d="m355.748 369.759c-7.399-3.047-15.871.477-18.921 7.876-37.181 90.211-134.094 116.669-210.699 87.956 35.207 19.575 75.733 30.739 118.873 30.739 1.02 0 2.034-.026 3.052-.039 48.937-15.55 92.19-50.885 115.57-107.611 3.051-7.4-.475-15.872-7.875-18.921z"/><path d="m304.929 344.942 23.276-86.815c2.073-7.73-2.514-15.677-10.244-17.75-7.732-2.075-15.678 2.514-17.75 10.244l-23.261 86.76c-7.096 26.049-21.157 45.266-41.794 57.115-52.344 30.055-137.446 5.827-143.246-75.571-2.594-36.413-2.168-104.775 0-135.2 1.796-25.204 10.741-45.799 26.587-61.215 5.737-5.581 5.863-14.756.282-20.493-5.581-5.736-14.756-5.861-20.493-.282-20.8 20.235-33.002 47.875-35.287 79.93-2.234 31.352-2.673 101.797 0 139.319 9.867 138.499 205.22 158.735 241.93 23.958z"/><path d="m33.685 127.303c-21.398 36.381-33.685 78.765-33.685 124.024 0 45.112 12.206 87.367 33.475 123.668-5.947-15.385-9.834-32.436-11.165-51.113-2.609-36.622-2.609-108.501 0-145.117 1.303-18.284 5.148-35.538 11.375-51.462z"/></g><g><path d="m387.273 265.819c-1.242 0-2.505-.16-3.762-.498-7.73-2.073-12.317-10.02-10.245-17.75l49.925-186.216c2.912-10.862-3.556-22.069-14.419-24.982-5.261-1.41-10.755-.689-15.475 2.037-4.72 2.724-8.097 7.121-9.507 12.383l-19.482 72.665c-2.073 7.73-10.021 12.32-17.75 10.244-7.73-2.072-12.317-10.019-10.245-17.75l19.482-72.665c3.416-12.739 11.59-23.387 23.015-29.98 11.425-6.594 24.733-8.343 37.468-4.927 26.298 7.051 41.957 34.183 34.908 60.481l-49.925 186.217c-1.735 6.473-7.59 10.741-13.988 10.741z" fill="#ff7186"/></g><path d="m125.949 37.165c30.456-11.498 64.484-14.416 97.155-7.389 24.665 5.306 47.742 16.206 66.737 31.52 20.65 16.648 36.485 38.153 47.068 63.915 2.301 5.601 7.708 8.989 13.41 8.989 1.834 0 3.699-.351 5.501-1.091 7.404-3.041 10.94-11.507 7.898-18.911-21.556-52.475-63.306-90.956-116.128-107.84-.863-.009-1.723-.033-2.588-.033-43.213.001-83.804 11.203-119.053 30.84z" fill="#ff7186"/><g><path d="m290.936 176.004c-6.377 0-12.221-4.242-13.975-10.692-9.249-34.002-31.798-57.498-63.494-66.162-33.135-9.057-71.3.33-94.972 23.359-5.737 5.581-14.912 5.455-20.493-.283-5.581-5.736-5.454-14.911.283-20.492 31.254-30.404 79.465-42.389 122.824-30.542 41.391 11.313 71.942 42.845 83.82 86.513 2.1 7.723-2.457 15.686-10.18 17.787-1.273.347-2.554.512-3.813.512z" fill="#ff7186"/></g><g><g><path d="m462.621 505.674h-14.643c-46.184 0-86.904-31.124-99.025-75.689l-71.991-264.674c-2.1-7.723 2.457-15.686 10.18-17.787 7.722-2.103 15.687 2.456 17.788 10.18l71.991 264.674c8.698 31.977 37.918 54.312 71.058 54.312h14.643c11.246 0 20.396-9.15 20.396-20.396s-9.15-20.396-20.396-20.396h-14.643c-14.782 0-27.816-9.962-31.697-24.226l-79.933-288.094c-2.14-7.712 2.378-15.699 10.09-17.839 7.714-2.143 15.699 2.378 17.839 10.09l79.952 288.164c.469 1.722 2.037 2.922 3.749 2.922h14.643c27.228 0 49.379 22.152 49.379 49.379-.001 27.229-22.153 49.38-49.38 49.38z" fill="#f9a0b1"/></g></g><ellipse cx="187.565" cy="247.422" fill="#56415e" rx="59.437" ry="104.141"/><path d="m469.031 350.633c13.477-30.354 20.973-63.952 20.973-99.305 0-31.199-5.84-61.031-16.473-88.474-25.689 31.4-66.155 98.522-4.5 187.779z" fill="#56415e"/></g></svg>