<svg id="Layer_1" enable-background="new 0 0 512 512" height="512" viewBox="0 0 512 512" width="512" xmlns="http://www.w3.org/2000/svg"><g><path d="m98.746 454.861c.025.014 78.904 46.141 157.254 46.141 78.362 0 157.252-46.139 157.252-46.139 53.635-44.943 87.75-112.415 87.75-187.865 0-135.311-109.691-245.002-245.002-245.002s-245.002 109.691-245.002 245.002c0 75.449 34.114 142.921 87.748 187.863z" fill="#49b1f7"/><path d="m383.765 319.316-1.613 1.654-.379.391-.042.54c-.008.097-.852 9.706-8.352 14.426-6.037 3.799-14.738 3.551-25.86-.743-1.039-.401-2.157-.786-3.337-1.158 7.112 16.025 10.992 33.455 11.09 51.326l.002.819c0 34.192-10.813 66.151-30.448 89.993-18.653 22.649-43.095 35.124-68.825 35.124-47.743 0-99.273-47.821-99.273-125.08 0-17.991 3.713-35.423 10.123-51.382l-2.64.382-.35.095c-.122.048-12.147 4.83-20.673-.911-5.831-3.924-8.787-11.893-8.787-23.685 0-1.574-.214-3.38-.617-5.389-12.443 25.072-19.368 53.001-19.368 80.891 0 34.526 9.334 68.327 25.93 96.417 34.449 18.481 73.824 28.974 115.654 28.974 41.836 0 81.217-10.496 115.67-28.983 16.596-28.109 25.915-61.921 25.915-96.414l-.003-1.138c-.125-23.003-4.946-45.444-13.817-66.149z" fill="#1c2e7a"/><path d="m238.678 30.446c-1.865 2.947-8.327 14.265-5.014 24.877 2.043 6.547 7.387 11.481 15.881 14.665.126.047.256.099.39.156 21.264-5.307 47.139 4.121 66.958 40.45 5.6 10.269 18.431 14.052 28.702 8.442 10.271-5.601 14.048-18.427 8.443-28.701-13.99-25.649-31.69-43.968-52.608-54.448-21.099-10.575-43.177-11.857-63.155-6.349z" fill="#3c58a0"/><g fill="#2a428c"><path d="m322.058 244.185c-69.811-48.027-111.489-94.03-111.489-123.06 0-24.669 18.369-46.926 41.669-51.497-.782-.446-1.506-.797-2.167-1.045-28.625-10.731-9.69-37.999-9.69-37.999l-.641-1.442c-39.704 10.233-71.482 47.288-71.482 91.983 0 27.882 15.769 57.652 48.207 91.011 20.981 21.575 48.439 44.086 81.613 66.907 21.138 14.543 37.264 34.526 46.922 57.229.681.231 1.346.466 1.979.711 34.117 13.168 36.248-14.966 36.248-14.966l1.169-1.198c-12.707-30.451-34.14-57.235-62.338-76.634z"/><path d="m164.425 337.091 1.775-.257c13.063-33.69 38.215-60.994 66.416-73.28l2.297-1.001-1.923-1.606c-11.267-9.413-21.616-18.826-30.758-27.978l-.845-.847-1.033.606c-29.342 17.21-52.758 44.121-67.693 75.256.157 1.125.24 2.169.24 3.123 0 38.789 31.524 25.984 31.524 25.984z"/></g><g fill="#3c58a0"><path d="m346.979 336.984c-2.937-7.113-11.082-10.499-18.195-7.559-7.112 2.937-10.496 11.083-7.56 18.194 5.059 12.25 7.66 25.13 7.731 38.241l.002.748c0 28.079-8.682 54.085-24.447 73.227-13.561 16.469-30.79 25.538-48.511 25.538s-34.95-9.069-48.512-25.538c-15.765-19.142-24.446-45.147-24.446-73.227 0-13.303 2.5-26.636 7.432-39.628 2.731-7.194-.887-15.239-8.081-17.969-7.194-2.731-15.238.887-17.969 8.081-6.135 16.162-9.246 32.822-9.246 49.516 0 34.525 10.939 66.822 30.801 90.94 14.755 17.917 33.095 29.564 52.857 33.846 5.674.391 11.394.606 17.165.606s11.491-.215 17.163-.607c19.763-4.282 38.103-15.929 52.857-33.846 19.863-24.118 30.801-56.415 30.801-90.976l-.002-.823c-.091-16.768-3.402-33.173-9.84-48.764z"/><path d="m408.981 311.382c-2.937-7.113-11.083-10.5-18.195-7.559-7.112 2.937-10.496 11.083-7.56 18.194 8.379 20.293 12.689 41.657 12.808 63.457l.003 1.134c0 35.557-9.391 69.483-26.758 97.671 15.74-8.223 30.474-18.104 43.973-29.415 6.99-21.563 10.649-44.632 10.649-68.292l-.003-1.209c-.139-25.458-5.158-50.348-14.917-73.981z"/><path d="m115.963 386.607c0-25.421 5.857-51.529 16.938-75.502 3.228-6.984.183-15.263-6.801-18.491-6.986-3.228-15.263-.182-18.492 6.801-12.763 27.612-19.508 57.762-19.508 87.192 0 23.64 3.658 46.697 10.646 68.254 13.499 11.312 28.234 21.193 43.975 29.417-17.367-28.188-26.758-62.114-26.758-97.671z"/></g><g><path d="m177.447 355.971c-1.644 0-3.314-.293-4.942-.911-7.193-2.731-10.811-10.776-8.08-17.969 6.122-16.126 14.889-30.791 26.057-43.589 20.194-23.141 45.088-36.826 70.098-38.534 7.682-.531 14.325 5.273 14.849 12.95.524 7.676-5.274 14.325-12.95 14.849-17.332 1.183-35.922 11.774-51.003 29.055-8.989 10.301-16.055 22.129-21.001 35.157-2.114 5.566-7.409 8.992-13.028 8.992z" fill="#4f71b6"/></g><g><path d="m120.245 319.195c-1.956 0-3.944-.414-5.836-1.289-6.985-3.228-10.029-11.507-6.801-18.491 8.457-18.295 19.335-35.124 32.333-50.018 16.286-18.663 35.066-33.523 55.818-44.168 6.848-3.514 15.243-.809 18.755 6.037s.809 15.243-6.037 18.755c-17.595 9.026-33.59 21.709-47.543 37.697-11.257 12.899-20.689 27.497-28.034 43.388-2.353 5.091-7.391 8.089-12.655 8.089z" fill="#4f71b6"/></g><g><path d="m396.109 330.636c-5.473 0-10.665-3.246-12.883-8.619-12.78-30.952-34.235-57.425-62.046-76.557-70.231-48.315-112.159-94.795-112.159-124.335 0-24.379 17.264-46.476 41.05-52.542 7.453-1.904 15.041 2.6 16.942 10.057 1.902 7.456-2.601 15.041-10.057 16.942-11.255 2.87-20.071 14.09-20.071 25.543 0 9.046 17.981 44.893 100.088 101.379 32.265 22.196 57.165 52.93 72.008 88.878 2.937 7.112-.448 15.258-7.56 18.195-1.739.718-3.541 1.059-5.312 1.059z" fill="#4f71b6"/></g><g><path d="m334.107 356.236c-5.473 0-10.664-3.246-12.883-8.619-7.813-18.922-20.975-35.137-38.063-46.893-34.593-23.798-63.381-47.431-85.563-70.242-37.451-38.513-55.656-74.284-55.656-109.357 0-54.581 38.505-104.014 91.555-117.541 7.454-1.901 15.04 2.601 16.942 10.057 1.901 7.456-2.602 15.042-10.058 16.942-40.894 10.428-70.576 48.507-70.576 90.542 0 27.46 15.625 56.876 47.768 89.931 20.91 21.503 48.29 43.947 81.381 66.711 21.542 14.82 38.148 35.296 48.024 59.215 2.937 7.112-.448 15.258-7.56 18.195-1.738.718-3.54 1.059-5.311 1.059z" fill="#4f71b6"/></g><g><path d="m293.791 123.196c-6.619-12.132-20.206-31.857-36.834-27.613-7.457 1.904-15.041-2.602-16.943-10.057-1.901-7.456 2.602-15.041 10.057-16.942 25.478-6.497 50.329 8.544 68.181 41.27 5.188 9.513 17.086 13.016 26.602 7.825 9.512-5.188 13.017-17.085 7.825-26.602-29.353-53.816-73.508-70.384-112.297-60.491-7.455 1.899-15.041-2.603-16.942-10.059s2.603-15.04 10.058-16.942c50.974-12.995 108.01 8.821 143.642 74.15 12.564 23.032 4.093 51.84-18.943 64.406-23.032 12.564-51.842 4.091-64.406-18.945z" fill="#6389c6"/></g><path d="m467.454 390.782c21.316-36.325 33.548-78.622 33.548-123.783 0-49.333-14.594-95.251-39.681-133.699-39.549 13.354-107.1 45.066-57.15 95.015 52.498 52.497 63.982 120.606 63.283 162.467z" fill="#73c3f9"/><path d="m10.998 266.998c0 49.471 14.668 95.512 39.887 134.022-7.198-54.904 3.375-115.997 47.477-171.705 38.378-48.478 2.863-98.637-24.439-126.237-39.111 43.416-62.925 100.884-62.925 163.92z" fill="#73c3f9"/></g></svg>