<svg id="Layer_1" enable-background="new 0 0 512 512" height="512" viewBox="0 0 512 512" width="512" xmlns="http://www.w3.org/2000/svg"><g><path d="m256.003 475.904c135.108 0 215.338-91.964 215.34-91.966 18.912-34.753 29.658-74.591 29.658-116.94 0-135.311-109.691-245.002-245.002-245.002s-245.001 109.691-245.001 245.002c0 42.352 10.748 82.193 29.662 116.947.013.015 80.245 91.959 215.343 91.959z" fill="#548bed"/><path d="m288.081 34.986c-2.239-4.682-5.425-8.715-9.26-11.923-7.516-.694-15.125-1.067-22.821-1.067-7.694 0-15.3.372-22.813 1.066-3.835 3.208-7.021 7.241-9.261 11.924l-49.268 103.016 12.099 5.985c-1.345 4.968-5.526 23.486 2.506 37.281 4.257 7.311 11.256 12.056 20.802 14.104 2.992.642 6.748 3.322 11.372 9.646l34.567-72.277 140.309 293.374h-101.772c1.861 7.841 3.045 13.027 3.402 14.599-1.059 2.362-4.961 12.402-.185 22.803 4.404 9.589 14.771 16.452 30.81 20.399 2.568.633 5.656 1.809 5.776 3.82.148 2.474-2.8 5.774-7.661 9.494h13.283c50.709-18.498 93.589-53.27 122.32-97.998z" fill="#ffc839"/><path d="m222.141 203.543c-4.069-5.431-8.018-8.835-11.762-9.639-35.4-7.595-21.834-50.707-21.834-50.707l-13.24-6.549-125.586 262.59c28.731 44.725 71.609 79.495 122.316 97.992h156.968c8.368-6.919 9.878-12.32-.076-14.77-44.853-11.04-29.407-41.575-29.407-41.575s-1.228-5.469-3.432-14.77h-180.394z" fill="#ffb332"/><g fill="#ffdd40"><path d="m59.404 413.22 129.141-270.023c3.519-7.358.407-16.177-6.952-19.697-7.358-3.521-16.178-.409-19.697 6.952l-121.236 253.493c5.563 10.22 11.834 20 18.744 29.275z"/><path d="m328.926 482.46h-189.651c34.702 18.839 74.464 29.54 116.725 29.54 30.879 0 60.415-5.728 87.626-16.154-.698-7.508-7.009-13.386-14.7-13.386z"/><path d="m314.289 426.115c0-8.157-6.613-14.77-14.77-14.77h-160.388l93.879-196.294c3.519-7.358.407-16.177-6.952-19.697-7.358-3.521-16.178-.407-19.697 6.952l-103.991 217.437c-2.189 4.576-1.876 9.956.829 14.247s7.422 6.895 12.495 6.895h183.824c8.159 0 14.771-6.613 14.771-14.77z"/></g><g><path d="m175.21 151.598c-2.137 0-4.306-.465-6.363-1.449-7.359-3.519-10.471-12.338-6.952-19.697l48.706-101.839c8.314-17.382 26.136-28.613 45.403-28.613s37.089 11.231 45.402 28.613l48.705 101.839c3.519 7.358.407 16.177-6.952 19.697-7.357 3.52-16.178.408-19.697-6.952l-48.705-101.839c-3.434-7.179-10.795-11.818-18.753-11.818s-15.319 4.639-18.753 11.819l-48.706 101.838c-2.536 5.304-7.825 8.401-13.335 8.401z" fill="#ffe98d"/></g><g><path d="m396.313 440.885h-96.794c-8.158 0-14.77-6.613-14.77-14.77s6.613-14.77 14.77-14.77h73.358l-116.873-244.372-22.994 48.077c-3.519 7.36-12.338 10.474-19.697 6.952-7.359-3.519-10.471-12.338-6.952-19.697l36.318-75.938c2.454-5.132 7.637-8.398 13.325-8.398s10.87 3.266 13.324 8.398l140.309 293.375c2.189 4.576 1.876 9.956-.829 14.248-2.704 4.291-7.422 6.895-12.495 6.895z" fill="#ffe98d"/></g><path d="m328.926 482.46c-8.157 0-14.77 6.613-14.77 14.77 0 2.67.719 5.168 1.958 7.329 19.956-5.034 38.941-12.507 56.611-22.099z" fill="#ffe98d"/><path d="m420.705 312.29c-7.359 3.519-10.471 12.338-6.952 19.697l38.848 81.227c6.909-9.275 13.18-19.054 18.743-29.276l-30.942-64.696c-3.519-7.359-12.339-10.469-19.697-6.952z" fill="#ffe98d"/><g><path d="m427.088 340.388c-5.51 0-10.799-3.097-13.335-8.401l-90.291-188.791c-3.52-7.358-.407-16.177 6.952-19.697 7.358-3.517 16.178-.407 19.697 6.952l90.291 188.791c3.52 7.358.407 16.177-6.952 19.697-2.055.983-4.226 1.449-6.362 1.449z" fill="#fff6d2"/></g><path d="m396.261 66.111c-12.616 15.298-18.9 36.052-5.681 63.022 28.518 58.182 59.971 124.497 69.373 144.37 4.463 9.433 10.989 17.794 19.304 24.099 4.974 3.772 11.108 7.303 18.449 9.636 2.164-13.093 3.296-26.534 3.296-40.24 0-83.139-41.42-156.593-104.741-200.887z" fill="#72aafc"/><path d="m121.42 129.133c13.219-26.97 6.935-47.724-5.681-63.022-63.321 44.294-104.741 117.748-104.741 200.887 0 13.706 1.132 27.147 3.296 40.24 7.341-2.333 13.475-5.865 18.449-9.636 8.314-6.305 14.841-14.666 19.304-24.099 9.402-19.873 40.855-86.188 69.373-144.37z" fill="#72aafc"/></g></svg>