<?xml version="1.0" encoding="iso-8859-1"?>
<!-- Generator: Adobe Illustrator 19.0.0, SVG Export Plug-In . SVG Version: 6.00 Build 0)  -->
<svg version="1.1" id="Capa_1" xmlns="http://www.w3.org/2000/svg" xmlns:xlink="http://www.w3.org/1999/xlink" x="0px" y="0px"
	 viewBox="0 0 511.995 511.995" style="enable-background:new 0 0 511.995 511.995;" xml:space="preserve">
<circle style="fill:#55CEED;" cx="255.998" cy="255.997" r="255.957"/>
<path style="fill:#505E93;" d="M315.439,421.963c-14.199,0-102.581,0-116.818,0c-44.548,9.39-73.062,25.295-91.28,42.401
	c91.522,65.133,211.27,62.12,298.518-0.793C387.606,446.768,359.296,431.208,315.439,421.963z"/>
<path style="fill:#474F70;" d="M246.204,421.963H198.62c-44.548,9.39-73.062,25.295-91.28,42.401
	c16.765,11.932,34.658,21.718,53.723,29.36C179.36,464.616,206.368,438.239,246.204,421.963z"/>
<path style="fill:#FA6487;" d="M380.803,445.466c-16.606-9.476-37.948-17.724-65.365-23.503c-14.199,0-102.581,0-116.818,0
	c-28.084,5.92-49.792,14.431-66.569,24.198C212.093,515.097,305.985,510.281,380.803,445.466z"/>
<path style="fill:#E64B78;" d="M132.051,446.161c13.727,11.822,27.86,21.474,42.236,29.027
	c17.434-21.571,40.748-40.49,71.918-53.225c-53.321,0.721-42.468-1.196-52.322,1.041
	C156.749,431.45,140.334,442.129,132.051,446.161z"/>
<path style="fill:#FECD9C;" d="M381.807,212.061H130.397c-0.264,3.375-2.436,107.808,3.05,131.012
	c4.586,19.362,13.699,37.438,26.987,52.916c76.533,88.976,221.72,33.744,221.72-82.074
	C381.99,218.105,382.464,220.485,381.807,212.061z"/>
<path style="fill:#E8F7F9;" d="M349.022,399.212c-2.106-8.659-5.459-17.167-10.139-25.275
	c-26.428-45.774-84.96-61.458-130.734-35.03c-23.503,13.57-39.07,35.604-45.079,60.028
	C216.942,458.097,302.349,449.037,349.022,399.212z"/>
<path style="fill:#EAB689;" d="M169.902,343.073c-5.399-22.834-3.356-127.1-3.051-131.012h-36.454
	c-0.259,3.32-2.52,107.455,3.05,131.012c14.058,59.352,71.475,105.475,139.488,95.619
	C221.583,431.1,181.306,391.227,169.902,343.073z"/>
<path style="fill:#C3F1FC;" d="M177.968,366.392c-7.002,9.877-12.043,20.932-14.899,32.543c8.405,9.229,17.577,16.798,27.249,22.811
	c0.171,0.106,0.345,0.208,0.517,0.313c0.619,0.381,1.24,0.754,1.863,1.122c0.745,0.437,1.494,0.869,2.248,1.291
	c0.013,0.007,0.026,0.015,0.04,0.022c10.807,6.041,22.619,10.518,35.164,13.075c11.55,2.337,23.284,2.963,34.849,2.017
	c0.063-0.005,0.127-0.01,0.19-0.016c0.934-0.078,1.866-0.168,2.798-0.266c0.178-0.019,0.356-0.038,0.535-0.058
	c0.831-0.091,1.66-0.191,2.488-0.299c0.261-0.034,0.522-0.068,0.784-0.104c0.366-0.049,0.731-0.106,1.096-0.159
	C230.137,432.346,195.083,403.626,177.968,366.392z"/>
<path style="fill:#FA6487;" d="M165.609,235.225c-17.46,0-55.216,0-65.289,0c0.014,0.069,0.024,0.14,0.039,0.21
	c-0.148-0.074-0.301-0.138-0.45-0.21c-1.131-0.121-7.632,0.756-15.042-3.302c-25.337,0.474-40.746,27.966-28.344,49.716
	c1.967,3.449,1.521,7.696-1.066,10.708c-5.473,6.372-8.585,14.823-7.943,24.024c1.945,27.87,35.886,41.326,56.337,21.606
	c3.495-3.37,5.554,0.275,14.974,0.275c18.404,0,33.323-14.919,33.323-33.323c0-4.756-1.738-7.935,1.871-10.879
	c12.872-10.506,15.967-28.648,7.623-42.712C158.836,246.61,163.561,245.194,165.609,235.225z"/>
<path style="fill:#E64B78;" d="M82.044,316.37c-0.642-9.201,2.47-17.652,7.943-24.024c2.588-3.013,3.033-7.259,1.066-10.708
	c-9.456-16.586-2.966-37.976,14.5-46.413h-5.232c0.014,0.069,0.024,0.14,0.039,0.21c-0.148-0.074-0.301-0.138-0.45-0.21
	c-1.131-0.121-7.632,0.756-15.042-3.302c-25.337,0.474-40.745,27.966-28.344,49.716c1.967,3.449,1.522,7.696-1.066,10.708
	c-5.473,6.372-8.585,14.823-7.943,24.024c1.719,24.632,29.231,39.069,50.513,26.092C89.048,336.981,82.812,327.377,82.044,316.37z"
	/>
<path style="fill:#FA6487;" d="M453.612,291.667c-2.305-2.542-2.706-6.314-0.926-9.247c13.169-21.706-2.105-50.014-27.885-50.497
	c-3.843,2.105-8.254,3.302-12.945,3.302h-2.099c-0.149,0.072-0.303,0.136-0.45,0.21c0.014-0.069,0.025-0.14,0.039-0.21
	c-22.38,0-47.8,0-65.289,0c0.687,3.343,1.879,6.503,3.485,9.401c1.291,2.327,1.314,5.19,0.02,7.516
	c-7.599,13.652-4.687,30.905,7.386,41.318c4.154,3.583,2.572,7.659,2.572,11.467c0,21.58,20.239,37.487,41.208,32.381
	c3.057-0.745,6.254,0.045,8.652,2.083c20.71,17.607,52.883,4.089,54.775-23.021C462.819,306.837,459.455,298.111,453.612,291.667z"
	/>
<path style="fill:#E64B78;" d="M439.424,319.696c-2.398-2.038-5.594-2.828-8.652-2.083c-22.834,5.562-43.922-13.675-40.936-36.523
	c0.361-2.759-0.736-5.507-2.844-7.325c-11.083-9.558-14.658-25.141-8.75-38.542c-25.668,0-22.342,0-34.186,0
	c0.687,3.343,1.879,6.503,3.485,9.401c1.291,2.327,1.314,5.19,0.02,7.516c-7.599,13.652-4.687,30.905,7.386,41.318
	c4.156,3.584,2.572,7.647,2.572,11.467c0,21.581,20.239,37.486,41.208,32.381c3.057-0.745,6.254,0.045,8.652,2.083
	c16.854,14.33,42.789,8.525,51.949-11.822C451.75,327.202,444.843,324.304,439.424,319.696z"/>
<path style="fill:#505E93;" d="M122.819,212.062h266.364l11.32-184.513C401.419,12.615,389.554,0,374.593,0H137.408
	c-14.962,0-26.826,12.615-25.911,27.548L122.819,212.062z"/>
<path style="fill:#474F70;" d="M187.067,0h-49.659c-14.962,0-26.826,12.615-25.911,27.548l11.32,184.513h49.659l-11.32-184.513
	C160.24,12.615,172.105,0,187.067,0z"/>
<polygon style="fill:#FDD36E;" points="118.77,146.076 122.819,212.062 389.182,212.062 393.23,146.076 "/>
<polygon style="fill:#FBB659;" points="118.77,146.076 122.819,212.062 172.477,212.062 168.428,146.076 "/>
<path style="fill:#69739B;" d="M407.857,185.234c-33.897,0-295.567,0-306.048,0c-14.91,0-26.995,12.086-26.995,26.995
	c0,14.91,12.086,26.995,26.995,26.995c7.21,0,214.758,0,240.062,0h65.986c14.909,0,26.995-12.086,26.995-26.995
	C434.853,197.32,422.767,185.234,407.857,185.234z"/>
<path style="fill:#505E93;" d="M143.984,212.229c0-14.909,12.086-26.995,26.995-26.995c-22.894,0-54.465,0-69.17,0
	c-14.91,0-26.995,12.086-26.995,26.995c0,14.91,12.086,26.995,26.995,26.995c9.1,0,56.109,0,69.17,0
	C156.071,239.225,143.984,227.139,143.984,212.229z"/>
<circle style="fill:#FA6487;" cx="255.998" cy="334.984" r="32.672"/>
<path style="fill:#E64B78;" d="M255.33,302.321c-5.334,0.105-10.717,1.516-15.664,4.372c-15.626,9.021-20.98,29.003-11.958,44.629
	c12.563,21.759,43.615,21.5,56.249,0.578C258.287,352.405,241.985,324.422,255.33,302.321z"/>
<path style="fill:#FA6487;" d="M190.729,364.683c-1.669-3.79,0.05-8.217,3.839-9.885c3.789-1.672,8.216,0.048,9.885,3.839
	c19.701,44.727,83.357,44.802,103.093,0c1.67-3.791,6.096-5.511,9.885-3.839c3.789,1.67,5.509,6.095,3.839,9.885
	C296.327,421.311,215.715,421.405,190.729,364.683z"/>
<g>
	<path style="fill:#505E93;" d="M283.842,289.31c-3.79-1.67-5.509-6.095-3.839-9.885c9.24-20.977,39.107-21.012,48.363,0
		c1.669,3.79-0.05,8.217-3.84,9.886c-3.789,1.667-8.216-0.05-9.885-3.84c-3.996-9.076-16.907-9.091-20.913,0
		C292.056,289.267,287.625,290.979,283.842,289.31z"/>
	<path style="fill:#505E93;" d="M218.273,285.472c-3.996-9.077-16.909-9.091-20.912,0c-1.669,3.789-6.095,5.507-9.885,3.84
		c-3.79-1.67-5.509-6.096-3.84-9.886c9.239-20.977,39.108-21.012,48.363,0c1.669,3.79-0.05,8.217-3.84,9.886
		C224.376,290.977,219.947,289.269,218.273,285.472z"/>
</g>
<g>
</g>
<g>
</g>
<g>
</g>
<g>
</g>
<g>
</g>
<g>
</g>
<g>
</g>
<g>
</g>
<g>
</g>
<g>
</g>
<g>
</g>
<g>
</g>
<g>
</g>
<g>
</g>
<g>
</g>
</svg>
