<?xml version="1.0" encoding="iso-8859-1"?>
<!-- Generator: Adobe Illustrator 19.0.0, SVG Export Plug-In . SVG Version: 6.00 Build 0)  -->
<svg version="1.1" id="Capa_1" xmlns="http://www.w3.org/2000/svg" xmlns:xlink="http://www.w3.org/1999/xlink" x="0px" y="0px"
	 viewBox="0 0 511.998 511.998" style="enable-background:new 0 0 511.998 511.998;" xml:space="preserve">
<circle style="fill:#505E93;" cx="255.999" cy="255.986" r="255.986"/>
<path style="fill:#F98FB0;" d="M412.102,277.146c-1.267-1.352-3.043-3.624-7.09-5.014c-3.772-1.293,12.203-0.842-264.57-0.842l0,0
	h-28.459c-0.577,0-1.145,0.038-1.706,0.1c-0.173,0.019-0.341,0.053-0.513,0.078c-0.388,0.056-0.773,0.119-1.151,0.203
	c-0.187,0.042-0.368,0.094-0.552,0.142c-0.361,0.095-0.717,0.199-1.067,0.319c-0.171,0.059-0.339,0.121-0.506,0.185
	c-0.365,0.139-0.722,0.292-1.073,0.458c-0.137,0.065-0.273,0.128-0.408,0.196c-0.398,0.203-0.784,0.423-1.161,0.659
	c-0.076,0.048-0.154,0.091-0.229,0.139c-1.415,0.917-2.667,2.057-3.712,3.375l-0.001,0.001l0,0
	c-2.084,2.629-3.337,5.947-3.337,9.561v169.541c93.262,74.347,225.645,74.32,318.873,0v-169.54
	C415.44,283.093,414.186,279.776,412.102,277.146L412.102,277.146z"/>
<path style="fill:#FA6487;" d="M140.444,271.292h-28.46c-8.515,0-15.416,6.902-15.416,15.416v169.541
	c20.707,16.507,44.029,29.865,69.247,39.362V271.292h-9.528H140.444z"/>
<g>
	<path style="fill:#C3F1FC;" d="M256.002,230.217l55.723-45.489c20.858-17.027,49.759-3.086,54.34,26.213l3.013,19.271
		L256.002,230.217z"/>
	<path style="fill:#C3F1FC;" d="M256.002,230.217l-55.728-45.483c-20.86-17.025-49.76-3.081-54.337,26.218l-3.011,19.271
		L256.002,230.217z"/>
</g>
<g>
	<path style="fill:#A5E5F9;" d="M335.191,179.913L335.191,179.913c0.832-0.679,1.674-1.317,2.525-1.918
		c-8.617-1.796-17.906,0.133-25.991,6.734l-55.723,45.489l79.725-0.004C320.794,218.478,317.873,194.05,335.191,179.913z"/>
	<path style="fill:#A5E5F9;" d="M204.696,188.342l-4.422-3.609c-20.86-17.025-49.76-3.081-54.337,26.218l-3.011,19.271l45.236-0.003
		C189.047,226.031,185.417,201.912,204.696,188.342z"/>
</g>
<path style="fill:#FA6487;" d="M416.025,226.261c-16.4,0.001-306.379,0.016-320.046,0.017c-5.284,0-9.567,4.284-9.567,9.567
	l0.002,41.268c0,5.284,4.285,9.567,9.568,9.567l43.876-0.002c13.338-0.001,262.886-0.014,276.169-0.015
	c5.284,0,9.567-4.284,9.566-9.568l-0.002-41.268C425.592,230.544,421.309,226.261,416.025,226.261z"/>
<path style="fill:#E64B78;" d="M155.661,277.11l-0.002-41.268c0-5.284,4.283-9.567,9.567-9.567c-10.245,0-59.014,0.003-69.247,0.004
	c-5.284,0-9.567,4.284-9.567,9.567l0.002,41.268c0,5.284,4.285,9.567,9.568,9.567l43.876-0.002l25.371-0.001
	C159.946,286.678,155.662,282.395,155.661,277.11z"/>
<path style="fill:#C3F1FC;" d="M218.043,226.272l75.917-0.004c-3.874-17.4-19.393-30.411-37.96-30.41
	C237.433,195.859,221.916,208.871,218.043,226.272z"/>
<path style="fill:#A5E5F9;" d="M274.98,200.8c-5.614-3.146-12.085-4.943-18.979-4.943c-18.567,0.001-34.084,13.014-37.957,30.414
	l37.959-0.002C258.436,215.331,265.476,206.128,274.98,200.8z"/>
<g>
	<path style="fill:#FDD36E;" d="M178.679,79.415c-4.142,0-7.5-3.357-7.5-7.5v-20.39c0-4.143,3.358-7.5,7.5-7.5
		c4.142,0,7.5,3.357,7.5,7.5v20.39C186.179,76.057,182.821,79.415,178.679,79.415z"/>
	<path style="fill:#FDD36E;" d="M178.679,151.083c-4.142,0-7.5-3.357-7.5-7.5v-20.39c0-4.143,3.358-7.5,7.5-7.5
		c4.142,0,7.5,3.357,7.5,7.5v20.39C186.179,147.726,182.821,151.083,178.679,151.083z"/>
	<path style="fill:#FDD36E;" d="M152.726,91.229l-17.658-10.194c-3.587-2.071-4.816-6.658-2.745-10.244
		c2.071-3.588,6.658-4.816,10.244-2.745l17.658,10.194c3.587,2.071,4.816,6.658,2.745,10.244
		C160.892,92.082,156.303,93.294,152.726,91.229z"/>
	<path style="fill:#FDD36E;" d="M214.792,127.064l-17.658-10.194c-3.587-2.071-4.816-6.658-2.745-10.244
		c2.071-3.588,6.658-4.815,10.244-2.745l17.658,10.194c3.587,2.071,4.816,6.658,2.745,10.244
		C222.96,127.917,218.37,129.129,214.792,127.064z"/>
	<path style="fill:#FDD36E;" d="M194.39,88.484c-2.071-3.587-0.842-8.174,2.745-10.244l17.658-10.194
		c3.587-2.07,8.174-0.842,10.244,2.745c2.071,3.587,0.842,8.174-2.745,10.244l-17.658,10.194
		C201.062,93.29,196.469,92.087,194.39,88.484z"/>
	<path style="fill:#FDD36E;" d="M132.322,124.319c-2.071-3.587-0.842-8.174,2.745-10.244l17.658-10.194
		c3.587-2.07,8.174-0.843,10.244,2.745c2.071,3.587,0.842,8.174-2.745,10.244l-17.658,10.194
		C138.996,129.125,134.403,127.922,132.322,124.319z"/>
</g>
<g>
	<path style="fill:#E8F7F9;" d="M320.539,68.176c-4.142,0-7.5-3.357-7.5-7.5V45.598c0-4.143,3.358-7.5,7.5-7.5s7.5,3.357,7.5,7.5
		v15.078C328.039,64.819,324.681,68.176,320.539,68.176z"/>
	<path style="fill:#E8F7F9;" d="M320.539,121.175c-4.142,0-7.5-3.358-7.5-7.5V98.596c0-4.143,3.358-7.5,7.5-7.5s7.5,3.357,7.5,7.5
		v15.078C328.039,117.817,324.681,121.175,320.539,121.175z"/>
	<path style="fill:#E8F7F9;" d="M300.37,76.652l-13.058-7.539c-3.587-2.07-4.816-6.657-2.745-10.244
		c2.07-3.588,6.656-4.819,10.244-2.745l13.058,7.539c3.587,2.07,4.816,6.657,2.745,10.244
		C308.534,77.511,303.938,78.714,300.37,76.652z"/>
	<path style="fill:#E8F7F9;" d="M346.268,103.151l-13.057-7.54c-3.587-2.071-4.817-6.658-2.745-10.244
		c2.071-3.588,6.658-4.816,10.244-2.745l13.057,7.54c3.588,2.071,4.817,6.658,2.745,10.244
		C354.435,104.004,349.846,105.216,346.268,103.151z"/>
	<path style="fill:#E8F7F9;" d="M336.966,77.658c-7.655,0-10.381-10.17-3.757-13.995l13.057-7.539
		c3.587-2.07,8.174-0.843,10.244,2.745c2.071,3.587,0.842,8.174-2.745,10.244C341.238,76.008,340.367,77.658,336.966,77.658z"/>
	<path style="fill:#E8F7F9;" d="M291.068,104.157c-7.654,0-10.381-10.17-3.757-13.995l13.058-7.54
		c3.585-2.07,8.174-0.842,10.244,2.745c2.071,3.587,0.842,8.174-2.745,10.244l-13.058,7.54
		C293.63,103.833,292.341,104.157,291.068,104.157z"/>
</g>
<path style="fill:#28B49B;" d="M271.642,174.418c-13.757,0-24.95-11.192-24.95-24.95c0-13.757,11.192-24.95,24.95-24.95
	c13.757,0,24.95,11.192,24.95,24.95C296.592,163.226,285.399,174.418,271.642,174.418z M271.642,139.518
	c-5.487,0-9.95,4.464-9.95,9.95c0,5.487,4.464,9.95,9.95,9.95c5.487,0,9.95-4.464,9.95-9.95
	C281.593,143.982,277.129,139.518,271.642,139.518z"/>
<path style="fill:#F98FB0;" d="M62.67,162.053c2.222-18.41,19.012-31.569,37.418-29.361c19.505,2.354,28.332,17.265,28.433,17.359
	l11.927,19.836c2.135,3.55,0.987,8.158-2.563,10.292c-3.55,2.136-8.158,0.986-10.291-2.563l-11.79-19.608
	c-4.104-5.78-10.473-9.575-17.513-10.425c-10.196-1.227-19.5,6.067-20.731,16.267c-0.887,7.356,4.347,14.029,11.704,14.916
	c4.113,0.496,7.044,4.232,6.548,8.345C93.96,202.466,59.398,189.164,62.67,162.053z"/>
<path style="fill:#FDD36E;" d="M406.143,167.4c-0.497-4.112,2.435-7.848,6.547-8.345c10.233-1.234,17.555-10.564,16.32-20.799
	c-1.668-13.817-14.27-23.716-28.084-22.037c-9.373,1.131-17.854,6.195-23.304,13.907l-14.808,24.628
	c-2.135,3.548-6.743,4.697-10.292,2.563c-3.55-2.135-4.697-6.743-2.563-10.292l15.216-25.273
	c7.885-11.326,20.26-18.77,33.953-20.424c22.024-2.656,42.115,13.102,44.772,35.132c2.226,18.444-10.969,35.261-29.414,37.487
	C410.335,174.44,406.636,171.483,406.143,167.4z"/>
<circle style="fill:#F98FB0;" cx="251.469" cy="44.028" r="12.532"/>
<g>
	<circle style="fill:#E8F7F9;" cx="55.59" cy="217.688" r="12.532"/>
	<path style="fill:#E8F7F9;" d="M225.802,510.189c19.847,2.333,39.835,2.418,60.403,0V271.293h-60.403V510.189z"/>
</g>
<path style="fill:#C3F1FC;" d="M225.802,510.189c9.906,1.165,19.982,1.782,30.201,1.782V271.292h-30.201V510.189z"/>
<path style="fill:#A5E5F9;" d="M225.804,286.675l60.403-0.003c-0.317-59.498,0.69-56.984-0.863-60.403l-58.685,0.003
	C225.107,229.692,226.114,227.201,225.804,286.675z"/>
<path style="fill:#55CEED;" d="M226.66,226.271c-1.553,3.421-0.546,0.93-0.856,60.404l30.201-0.002
	c0.31-59.364-0.699-56.978,0.856-60.404L226.66,226.271z"/>
<g>
</g>
<g>
</g>
<g>
</g>
<g>
</g>
<g>
</g>
<g>
</g>
<g>
</g>
<g>
</g>
<g>
</g>
<g>
</g>
<g>
</g>
<g>
</g>
<g>
</g>
<g>
</g>
<g>
</g>
</svg>
