<?xml version="1.0" encoding="iso-8859-1"?>
<!-- Generator: Adobe Illustrator 19.0.0, SVG Export Plug-In . SVG Version: 6.00 Build 0)  -->
<svg version="1.1" id="Capa_1" xmlns="http://www.w3.org/2000/svg" xmlns:xlink="http://www.w3.org/1999/xlink" x="0px" y="0px"
	 viewBox="0 0 512 512" style="enable-background:new 0 0 512 512;" xml:space="preserve">
<circle style="fill:#FDD36E;" cx="256" cy="256" r="256"/>
<path style="fill:#E8F7F9;" d="M450.831,306.719l-36.276,13.626l37.609,100.126c10.126-12.065,19.158-25.075,26.947-38.883
	C470.751,359.357,461.12,333.836,450.831,306.719z"/>
<path style="fill:#C3F1FC;" d="M432.611,313.563l-18.056,6.782l37.609,100.126c4.869-5.801,9.478-11.826,13.825-18.048
	L432.611,313.563z"/>
<path id="SVGCleanerId_0" style="fill:#E8F7F9;" d="M463.733,108.827c-9.386-26.633-21.292-50.818-35.953-72.614
	c-1.485-2.207-3.799-3.227-5.722-2.505c-9.702,3.644-155.546,58.425-165.323,62.097c-1.923,0.722-2.994,3.014-2.659,5.652
	c3.788,29.781,11.656,56.149,20.63,78.302c-0.003,0-0.005-0.001-0.008-0.002c0.125,0.307,0.254,0.605,0.379,0.911
	c0.288,0.704,0.573,1.418,0.863,2.114c0.006,0.001,0.012,0.003,0.018,0.005c26.294,63.207,65.32,104.559,99.48,121.032l0,0
	c69.758,32.831,93.981-35.145,94.213-35.388h-0.001c8.5-19.945,12.346-45.393,11.173-73.732
	c-1.892-29.158-5.976-53.487-16.021-82.798c0.002-0.003,0.004-0.006,0.006-0.008c-0.133-0.388-0.272-0.771-0.406-1.158
	c-0.223-0.643-0.432-1.274-0.66-1.923C463.74,108.818,463.737,108.823,463.733,108.827z"/>
<g>
	<path id="SVGCleanerId_0_1_" style="fill:#E8F7F9;" d="M463.733,108.827c-9.386-26.633-21.292-50.818-35.953-72.614
		c-1.485-2.207-3.799-3.227-5.722-2.505c-9.702,3.644-155.546,58.425-165.323,62.097c-1.923,0.722-2.994,3.014-2.659,5.652
		c3.788,29.781,11.656,56.149,20.63,78.302c-0.003,0-0.005-0.001-0.008-0.002c0.125,0.307,0.254,0.605,0.379,0.911
		c0.288,0.704,0.573,1.418,0.863,2.114c0.006,0.001,0.012,0.003,0.018,0.005c26.294,63.207,65.32,104.559,99.48,121.032l0,0
		c69.758,32.831,93.981-35.145,94.213-35.388h-0.001c8.5-19.945,12.346-45.393,11.173-73.732
		c-1.892-29.158-5.976-53.487-16.021-82.798c0.002-0.003,0.004-0.006,0.006-0.008c-0.133-0.388-0.272-0.771-0.406-1.158
		c-0.223-0.643-0.432-1.274-0.66-1.923C463.74,108.818,463.737,108.823,463.733,108.827z"/>
</g>
<path style="fill:#C3F1FC;" d="M397.508,295.531L397.508,295.531c-30.34-17.908-66.159-60.465-92.104-123.803
	c-0.005-0.002-0.01-0.004-0.016-0.006c-0.286-0.697-0.569-1.412-0.854-2.117c-0.124-0.307-0.251-0.605-0.374-0.913
	c0.002,0.001,0.005,0.002,0.007,0.002c-8.885-22.187-17.031-48.45-21.829-77.852c-0.425-2.605,0.382-4.797,2.006-5.407
	c0.239-0.09,0.584-0.219,1.01-0.379c-15.213,5.714-26.172,9.831-28.618,10.749c-1.923,0.722-2.994,3.014-2.659,5.652
	c3.788,29.781,11.656,56.149,20.63,78.302c-0.003,0-0.005-0.001-0.008-0.002c0.125,0.307,0.254,0.605,0.379,0.911
	c0.288,0.704,0.573,1.418,0.863,2.114c0.006,0.001,0.012,0.003,0.018,0.005c26.294,63.206,65.32,104.559,99.48,121.032v0.001
	c27.908,13.135,48.522,10.129,63.233,1.787C427.87,307.493,414.335,305.254,397.508,295.531z"/>
<path style="fill:#E8F7F9;" d="M61.169,306.719c-10.289,27.117-19.92,52.638-28.28,74.87c7.789,13.808,16.821,26.818,26.947,38.883
	l37.609-100.126L61.169,306.719z"/>
<path style="fill:#C3F1FC;" d="M61.169,306.719c-10.289,27.117-19.92,52.638-28.28,74.87c4.215,7.473,8.807,14.702,13.727,21.684
	l33.582-89.406L61.169,306.719z"/>
<path style="fill:#E8F7F9;" d="M48.266,108.827c9.386-26.633,21.292-50.818,35.953-72.614c1.485-2.207,3.799-3.227,5.722-2.505
	c9.702,3.644,155.546,58.425,165.323,62.097c1.923,0.722,2.994,3.014,2.659,5.652c-3.788,29.781-11.656,56.149-20.63,78.302
	c0.003,0,0.005-0.001,0.008-0.002c-0.124,0.307-0.254,0.605-0.379,0.911c-0.288,0.704-0.573,1.418-0.863,2.114
	c-0.006,0.001-0.012,0.003-0.018,0.005c-26.294,63.207-65.32,104.559-99.48,121.032l0,0c-69.758,32.831-93.981-35.145-94.213-35.388
	l0,0c-8.5-19.945-12.345-45.393-11.173-73.732c1.892-29.158,5.976-53.487,16.021-82.798c-0.002-0.003-0.004-0.006-0.006-0.008
	c0.133-0.388,0.272-0.771,0.406-1.158c0.223-0.643,0.432-1.274,0.66-1.923C48.261,108.818,48.263,108.823,48.266,108.827z"/>
<path style="fill:#C3F1FC;" d="M62.733,276.09L62.733,276.09c-6.484-19.188-8.64-44.001-6.274-71.893
	c3.034-28.729,7.755-52.819,17.922-82.084c-0.002-0.003-0.003-0.006-0.005-0.008c0.135-0.388,0.274-0.77,0.41-1.156
	c0.225-0.642,0.438-1.272,0.668-1.92c0.003,0.004,0.005,0.009,0.008,0.013c9.464-26.604,21.014-50.922,34.859-73.025
	c1.402-2.238,3.473-3.349,5.119-2.731c0.508,0.191,1.459,0.548,2.787,1.047c-15.05-5.653-25.874-9.719-28.285-10.624
	c-1.923-0.722-4.237,0.297-5.722,2.504c-14.66,21.796-26.567,45.981-35.953,72.614c-0.003-0.005-0.006-0.009-0.009-0.014
	c-0.229,0.648-0.438,1.279-0.66,1.923c-0.134,0.387-0.273,0.769-0.406,1.158c0.002,0.003,0.004,0.006,0.006,0.008
	c-10.045,29.311-14.129,53.64-16.021,82.798c-1.172,28.34,2.674,53.787,11.173,73.732l0,0c0.168,0.176,12.879,35.742,46.263,43.038
	C69.49,300.369,62.849,276.228,62.733,276.09z"/>
<path style="fill:#FA6487;" d="M235.661,183.677c-8.695-5.884-14.64-13.917-30.866-13.917c-25.6,0-25.6,20-51.2,20
	c-25.599,0-25.599-20-51.198-20c-25.6,0-25.6,20-51.199,20c-8.701,0-14.442-2.313-19.239-5.364
	c-0.297,3.377-0.558,6.804-0.785,10.303c-1.172,28.34,2.674,53.787,11.173,73.732l0,0c0.232,0.243,24.455,68.219,94.213,35.387
	v-0.001C170.558,287.425,209.372,246.378,235.661,183.677z"/>
<path style="fill:#E64B78;" d="M42.396,268.542c0.008,0.019,0.02,0.049,0.03,0.073c0.022,0.054,0.05,0.122,0.081,0.2
	c0.057,0.14,0.126,0.31,0.215,0.523c0.007,0.016,0.014,0.034,0.021,0.051c0.077,0.187,0.166,0.397,0.267,0.634
	c0.002,0.005,0.004,0.009,0.006,0.014c0.107,0.25,0.226,0.525,0.36,0.826c0,0.001,0.001,0.003,0.002,0.004
	c0.131,0.296,0.276,0.617,0.433,0.958c0.005,0.01,0.009,0.02,0.014,0.03c0.319,0.694,0.693,1.477,1.121,2.335
	c0.004,0.009,0.009,0.018,0.013,0.027c4.345,8.684,14.376,24.958,32.077,33.312c0.007,0.003,0.013,0.006,0.02,0.01
	c1.762,0.831,3.601,1.583,5.517,2.241c0.015,0.005,0.031,0.01,0.046,0.016c1.919,0.657,3.915,1.221,5.992,1.675h0.001
	c-19.12-11.102-25.761-35.243-25.877-35.381l0,0c-6.484-19.188-8.641-44.001-6.275-71.893c0.543-5.14,1.143-10.128,1.815-15.027
	c-2.132,0.374-4.465,0.59-7.075,0.59c-8.701,0-14.442-2.313-19.239-5.364c-0.004,0.047-0.007,0.094-0.012,0.141
	c-0.144,1.642-0.28,3.295-0.407,4.963c-0.13,1.718-0.253,3.449-0.366,5.199c-1.172,28.34,2.674,53.787,11.173,73.732l0,0
	C42.352,268.438,42.371,268.481,42.396,268.542z"/>
<path style="fill:#FA6487;" d="M375.439,303.82L375.439,303.82c69.758,32.832,93.981-35.144,94.213-35.387h-0.001
	c8.5-19.945,12.346-45.392,11.174-73.732c-0.227-3.5-0.488-6.928-0.785-10.306c-4.798,3.052-10.541,5.366-19.246,5.366
	c-25.603,0-25.603-20-51.206-20c-25.599,0-25.599,20-51.199,20s-25.6-20-51.2-20c-16.219,0-22.166,8.025-30.854,13.909
	C302.625,246.374,341.44,287.424,375.439,303.82z"/>
<path style="fill:#E64B78;" d="M438.672,305.607c-10.802,1.886-24.337-0.353-41.164-10.076v-0.001
	c-30.34-17.908-66.158-60.465-92.104-123.802c-0.005-0.002-0.01-0.004-0.016-0.006c-0.255-0.622-0.508-1.257-0.761-1.888
	c-14.309,0.8-20.077,8.272-28.291,13.834c0.003,0.007,0.006,0.013,0.008,0.02c19.725,47.039,55.366,99.046,99.095,120.131v0.001
	C415.295,322.585,437.062,305.873,438.672,305.607z"/>
<path style="fill:#C3F1FC;" d="M449.802,293.305c-0.207,0.078-45.488,17.086-43.18,16.219c-12.412,4.662-10.515,23.043,2.772,24.893
	c2.063,0.287,4.226,0.079,6.313-0.706c0.402-0.151,5.886-2.211,5.599-2.103c12.752-4.79,26.488-9.949,37.581-14.116
	c6.679-2.509,10.06-9.957,7.551-16.637C463.929,294.177,456.481,290.796,449.802,293.305z"/>
<g>
	<path style="fill:#A5E5F9;" d="M406.593,309.534C406.525,309.56,406.526,309.559,406.593,309.534L406.593,309.534z"/>
	<path style="fill:#A5E5F9;" d="M406.622,309.523L406.622,309.523C406.58,309.539,406.586,309.537,406.622,309.523z"/>
	<path style="fill:#A5E5F9;" d="M437.281,298.008c-12.279,4.612-29.345,11.022-30.659,11.516
		c-12.411,4.662-10.514,23.043,2.773,24.893c2.063,0.287,4.226,0.078,6.313-0.706c1.352-0.508,29.377-11.034,30.767-11.556
		C432.156,323.938,426.337,305.356,437.281,298.008z"/>
</g>
<path style="fill:#C3F1FC;" d="M62.199,293.305c0.207,0.078,45.488,17.086,43.18,16.219c12.412,4.662,10.515,23.043-2.772,24.893
	c-2.063,0.287-4.226,0.079-6.313-0.706c-0.402-0.151-5.886-2.211-5.599-2.103c-12.752-4.79-26.489-9.949-37.581-14.116
	c-6.679-2.509-10.06-9.957-7.551-16.637C48.071,294.177,55.519,290.796,62.199,293.305z"/>
<path style="fill:#A5E5F9;" d="M77.254,312.76c2.134-5.681,7.681-9.084,13.437-8.753c-12.485-4.689-28.37-10.656-28.492-10.702
	c-6.68-2.509-14.128,0.872-16.637,7.551c-2.509,6.679,0.872,14.128,7.551,16.637c8.491,3.189,18.531,6.96,28.493,10.702
	C77.055,324.654,75.12,318.441,77.254,312.76z"/>
<g>
	<circle style="fill:#F98FB0;" cx="444.83" cy="226.21" r="14.974"/>
	<circle style="fill:#F98FB0;" cx="423.7" cy="205.08" r="6.161"/>
	<circle style="fill:#F98FB0;" cx="171.77" cy="226.21" r="14.974"/>
	<circle style="fill:#F98FB0;" cx="150.64" cy="205.08" r="6.161"/>
</g>
<g>
</g>
<g>
</g>
<g>
</g>
<g>
</g>
<g>
</g>
<g>
</g>
<g>
</g>
<g>
</g>
<g>
</g>
<g>
</g>
<g>
</g>
<g>
</g>
<g>
</g>
<g>
</g>
<g>
</g>
</svg>
