<?xml version="1.0" encoding="iso-8859-1"?>
<!-- Generator: Adobe Illustrator 19.0.0, SVG Export Plug-In . SVG Version: 6.00 Build 0)  -->
<svg version="1.1" id="Capa_1" xmlns="http://www.w3.org/2000/svg" xmlns:xlink="http://www.w3.org/1999/xlink" x="0px" y="0px"
	 viewBox="0 0 511.914 511.914" style="enable-background:new 0 0 511.914 511.914;" xml:space="preserve">
<circle style="fill:#FF4F6F;" cx="255.957" cy="255.957" r="255.957"/>
<path style="fill:#FDD36E;" d="M374.642,117.757c1.403-6.891,12.897-26.563,16.464-32.742l0,0
	c18.937-32.795-30.231-61.191-49.172-28.389l0,0c-3.567,6.179-17.097,24.675-22.364,29.335
	C331.671,92.947,364.933,112.151,374.642,117.757z"/>
<path style="fill:#FBB659;" d="M344.465,100.334c4.912-5.711,11.322-14.095,19.291-26.569c7.644-11.965,19.541-14.97,30.089-12.268
	c-7.008-19.481-36.643-28.837-51.085-6.229c-0.284,0.444-0.559,0.896-0.825,1.358c-3.567,6.179-17.097,24.675-22.364,29.335
	C327.17,90.349,342.147,98.995,344.465,100.334z"/>
<circle style="fill:#DB9E82;" cx="132.268" cy="333.194" r="43.663"/>
<path style="fill:#C9886F;" d="M154.097,295.388c-28.848-16.694-65.493,4.052-65.493,37.807c0,33.75,36.643,54.502,65.493,37.807
	C125.003,354.165,125.016,312.218,154.097,295.388z"/>
<path style="fill:#FDD36E;" d="M390.272,254.525c75.879-131.426-117.119-245.969-196.87-121.13c-1.96,3.067-3.416,5.628-3.358,5.527
	c-30.666,53.115-78.657,94.076-135.929,116.02l0,0c-4.523,1.733-5.014,7.938-0.819,10.36
	c20.141,11.628,315.802,182.329,295.905,170.841c4.194,2.422,9.321-1.105,8.561-5.888l0,0
	C348.129,369.684,359.607,307.641,390.272,254.525z"/>
<path style="fill:#FBB659;" d="M105.642,295.525c51.878-26.544,95.966-68.648,126.046-120.749
	c34.829-58.915,88.787-77.22,138.68-61.879c-49.71-45.404-134.628-51.108-180.324,26.025
	c-30.666,53.115-78.657,94.076-135.929,116.02l0,0c-4.523,1.733-5.014,7.938-0.819,10.36
	C77.632,279.353,84.014,283.038,105.642,295.525z"/>
<path style="fill:#F7A15F;" d="M367.374,335.732c-29.675-17.133-206.539-119.246-236.206-136.374
	c-7.152-4.129-16.381-1.657-20.51,5.495c-4.129,7.152-1.656,16.381,5.496,20.51c47.487,27.416,185.129,106.884,236.206,136.374
	c7.152,4.129,16.381,1.656,20.51-5.495C377,349.089,374.526,339.86,367.374,335.732z"/>
<path style="fill:#ED8F4F;" d="M164.13,235.725c4.129-7.152,13.359-9.625,20.511-5.496c-16.623-9.597-45.932-26.519-53.472-30.872
	c-7.152-4.129-16.38-1.657-20.51,5.496c-4.128,7.152-1.656,16.38,5.496,20.51l53.472,30.872
	C162.474,252.106,160.001,242.876,164.13,235.725z"/>
<g>
	<path style="fill:#E8F7F9;" d="M98.821,391.942c-3.611-2.028-8.182-0.744-10.21,2.868l-20.002,35.629
		c3.352,3.597,6.827,7.104,10.409,10.524c0.913-0.629,1.704-1.463,2.283-2.495l20.389-36.317
		C103.718,398.54,102.434,393.97,98.821,391.942z"/>
	<path style="fill:#E8F7F9;" d="M29.179,374.686l24.201-14.365c3.561-2.114,4.735-6.714,2.621-10.276
		c-2.115-3.561-6.714-4.735-10.276-2.621l-23.116,13.721C24.666,365.717,26.853,370.233,29.179,374.686z"/>
	<path style="fill:#E8F7F9;" d="M157.107,408.418c4.141,0.05,7.458,3.447,7.408,7.589l-0.502,41.646
		c-0.05,4.141-3.447,7.458-7.589,7.408c-4.141-0.05-7.458-3.447-7.408-7.589l0.502-41.646
		C149.568,411.685,152.965,408.368,157.107,408.418z"/>
</g>
<circle style="fill:#F7A15F;" cx="367.158" cy="69.807" r="13.058"/>
<path style="fill:#CE9C42;" d="M377.709,62.132c-2.838-3.892-7.717-6.07-12.783-5.189c-11.383,1.978-14.727,16.737-5.39,23.457
	C363.704,74.28,367.218,65.949,377.709,62.132z"/>
<g>
</g>
<g>
</g>
<g>
</g>
<g>
</g>
<g>
</g>
<g>
</g>
<g>
</g>
<g>
</g>
<g>
</g>
<g>
</g>
<g>
</g>
<g>
</g>
<g>
</g>
<g>
</g>
<g>
</g>
</svg>
