<?xml version="1.0" encoding="iso-8859-1"?>
<!-- Generator: Adobe Illustrator 19.0.0, SVG Export Plug-In . SVG Version: 6.00 Build 0)  -->
<svg version="1.1" id="Capa_1" xmlns="http://www.w3.org/2000/svg" xmlns:xlink="http://www.w3.org/1999/xlink" x="0px" y="0px"
	 viewBox="0 0 512 512" style="enable-background:new 0 0 512 512;" xml:space="preserve">
<circle style="fill:#55CEED;" cx="256" cy="256" r="256"/>
<g>
	<path style="fill:#A5E5F9;" d="M336.463,12.917c-6.462,7.265-6.679,17.575-1.49,25.061c1.742,2.512,0.047,5.939-3.01,5.939h-33.086
		c-11.306,0-20.557,9.251-20.557,20.557s9.25,20.557,20.557,20.557h39.522c1.403,9.966,9.997,17.705,20.334,17.705
		c16.512,0,53.287,0,70.064,0c2.061,3.067-0.004,6.188-2.853,6.188h-33.086c-11.306,0-20.557,9.251-20.557,20.557
		s9.251,20.557,20.557,20.557c2.044,0.001,94.473,0.058,96.182-0.131C459.664,85.483,404.359,35.38,336.463,12.917z"/>
	<path style="fill:#A5E5F9;" d="M451.163,421.653h-24.44c-2.833,0-4.491-2.943-3.333-5.374
		c10.037-13.526,0.303-32.746-16.497-32.746c-29.906,0-54.189,0-83.931,0c-11.306,0-20.557,9.251-20.557,20.557
		s9.25,20.557,20.557,20.557h23.086c3.057,0,4.752,3.427,3.01,5.939c-9.394,13.549,0.349,32.181,17.368,32.181
		c12.752,0,26.072,0,40.514,0C423.253,450.839,438.099,437.029,451.163,421.653z"/>
	<path style="fill:#A5E5F9;" d="M70.03,184.13c-34.518,0-45.378,0-59.787,0c-7.236,24.785-10.919,51.335-10.131,79.235
		c10.129,0,11.051,0,28.454,0c17.022,0,26.76-18.634,17.368-32.181c-1.742-2.512-0.047-5.939,3.01-5.939H70.03
		c11.306,0,20.557-9.251,20.557-20.557C90.587,193.381,81.337,184.13,70.03,184.13z"/>
</g>
<g>
	<path style="fill:#BBE0EA;" d="M319.324,306.476c-24.021,40.086-54.066,120.26-65.45,205.497c0.71,0.006,1.416,0.027,2.127,0.027
		c4.375,0,8.725-0.111,13.046-0.328c11.181-81.378,40.149-159.057,63.146-197.488l-6.435-3.853L319.324,306.476z"/>
	<path style="fill:#BBE0EA;" d="M257.993,511.975c-11.26-84.305-41.193-165.017-65.45-205.499l-12.868,7.708
		c23.155,38.695,51.975,116.189,63.145,197.482c4.365,0.221,8.759,0.334,13.18,0.334C256.666,512,257.328,511.98,257.993,511.975z"
		/>
</g>
<path style="fill:#DBF2FA;" d="M248.367,511.877c2.536,0.074,5.079,0.123,7.633,0.123c2.465,0,4.919-0.043,7.367-0.112V301.055h-15
	V511.877z"/>
<circle style="fill:#F7A15F;" cx="326.5" cy="310.33" r="31.361"/>
<circle style="fill:#1EA087;" cx="186" cy="310.33" r="31.361"/>
<ellipse transform="matrix(-0.3138 0.9495 -0.9495 -0.3138 666.9305 -126.6911)" style="fill:#FBB659;" cx="379.246" cy="177.652" rx="143.121" ry="131.521"/>
<path style="fill:#F7A15F;" d="M413.149,303.303c-68.968-22.796-104.767-102.117-79.961-177.169
	c13.486-40.8,42.108-71.933,76.502-88.195c-64.819-12.919-132.232,28.601-155.313,98.43
	c-24.807,75.052,10.993,154.373,79.961,177.169c31.476,10.403,64.417,7.229,93.292-6.423
	C422.782,306.148,417.948,304.889,413.149,303.303z"/>
<ellipse transform="matrix(-0.3138 -0.9495 0.9495 -0.3138 5.7326 359.4355)" style="fill:#28B49B;" cx="132.75" cy="177.646" rx="143.121" ry="131.521"/>
<path style="fill:#1EA087;" d="M36.972,174.444c-11.716-35.445-9.907-71.839,2.522-102.785
	C3.883,107.365-10.194,164.27,7.868,218.919c24.807,75.052,100.826,117.414,169.794,94.619
	c36.396-12.03,63.549-39.805,77.438-74.384C186.917,307.518,70.012,274.406,36.972,174.444z"/>
<circle style="fill:#E64B78;" cx="256" cy="286.83" r="31.361"/>
<ellipse style="fill:#FA6487;" cx="256" cy="143.71" rx="131.52" ry="143.12"/>
<path style="fill:#E64B78;" d="M303.887,251.582c-72.637,0-131.521-64.079-131.521-143.124c0-37.964,13.588-72.471,35.755-98.09
	c-48.96,20.836-83.641,72.678-83.641,133.34c0,79.045,58.884,143.124,131.522,143.124c37.751,0,71.781-17.313,95.767-45.035
	C336.929,248.112,320.781,251.582,303.887,251.582z"/>
<path style="fill:#D64763;" d="M287.094,290.298c-0.003,0-0.005,0-0.008,0l-62.455-0.068c-4.142-0.005-7.496-3.366-7.492-7.508
	c0.004-4.14,3.362-7.492,7.5-7.492c0.003,0,0.005,0,0.008,0l62.455,0.068c4.142,0.005,7.496,3.366,7.492,7.508
	C294.59,286.946,291.232,290.298,287.094,290.298z"/>
<path style="fill:#D8874E;" d="M356.73,326.166c-0.947,0-1.909-0.181-2.839-0.562l-57.626-23.599
	c-3.833-1.569-5.668-5.949-4.098-9.782c1.569-3.834,5.95-5.667,9.783-4.099l57.626,23.599c3.833,1.569,5.668,5.949,4.098,9.782
	C362.485,324.409,359.685,326.166,356.73,326.166z"/>
<path style="fill:#198773;" d="M155.276,326.166c-2.955,0-5.754-1.757-6.943-4.659c-1.57-3.833,0.265-8.213,4.098-9.783
	l57.62-23.599c3.834-1.57,8.213,0.266,9.783,4.098c1.57,3.833-0.265,8.213-4.098,9.783l-57.62,23.599
	C157.186,325.985,156.223,326.166,155.276,326.166z"/>
<g>
	<circle style="fill:#F98FB0;" cx="326.5" cy="115.95" r="31.411"/>
	<circle style="fill:#F98FB0;" cx="307.46" cy="57.18" r="12.368"/>
</g>
<g>
	<circle style="fill:#FDD36E;" cx="465.88" cy="143.71" r="24.728"/>
	<circle style="fill:#FDD36E;" cx="480.39" cy="187.86" r="10.215"/>
</g>
<g>
</g>
<g>
</g>
<g>
</g>
<g>
</g>
<g>
</g>
<g>
</g>
<g>
</g>
<g>
</g>
<g>
</g>
<g>
</g>
<g>
</g>
<g>
</g>
<g>
</g>
<g>
</g>
<g>
</g>
</svg>
