<?xml version="1.0" encoding="iso-8859-1"?>
<!-- Generator: Adobe Illustrator 19.0.0, SVG Export Plug-In . SVG Version: 6.00 Build 0)  -->
<svg version="1.1" id="Capa_1" xmlns="http://www.w3.org/2000/svg" xmlns:xlink="http://www.w3.org/1999/xlink" x="0px" y="0px"
	 viewBox="0 0 512 512" style="enable-background:new 0 0 512 512;" xml:space="preserve">
<circle style="fill:#55CEED;" cx="256" cy="256" r="256"/>
<path style="fill:#E8846C;" d="M141.863,485.222C176.213,502.35,214.944,512,255.935,512s79.722-9.65,114.072-26.778l37.684-193.445
	H104.179L141.863,485.222z"/>
<path style="fill:#DD745F;" d="M172.8,416.452l-24.287-124.675H104.18l37.684,193.445C176.213,502.35,214.944,512,255.935,512
	c7.469,0,14.861-0.329,22.167-0.957c-0.328-0.028-0.656-0.057-0.983-0.086C225.215,506.298,182.764,467.603,172.8,416.452z"/>
<path style="fill:#CE604E;" d="M405.896,332.26H106.104c-10.259,0-18.653-8.394-18.653-18.654l0,0
	c0-10.259,8.394-18.653,18.653-18.653h299.792c10.259,0,18.654,8.394,18.654,18.653l0,0
	C424.55,323.866,416.156,332.26,405.896,332.26z"/>
<path style="fill:#B74D42;" d="M195.861,313.606L195.861,313.606c0-10.259,8.394-18.653,18.654-18.653H106.104
	c-10.259,0-18.653,8.394-18.653,18.653l0,0c0,10.259,8.394,18.654,18.653,18.654h108.411
	C204.255,332.26,195.861,323.866,195.861,313.606z"/>
<path style="fill:#1EA087;" d="M259.269,62.923c-0.011,0-0.022,0-0.034,0c-4.129-0.018-7.466-3.354-7.466-7.482
	c0-1.347,0.331-33.212,29.082-54.017c3.356-2.427,8.044-1.677,10.473,1.68c2.428,3.355,1.676,8.044-1.68,10.473
	c-22.388,16.2-22.866,40.855-22.875,41.897C266.732,59.591,263.382,62.923,259.269,62.923z"/>
<path style="fill:#FDD36E;" d="M383.25,223.593h-65.2c-6.367,0-196.202,0-189.43,0c-22.709,0-41.727,18.585-41.293,41.289
	c0.421,22.003,18.389,39.711,40.493,39.711h8.05c2.659,0,4.815,2.156,4.815,4.815v1.05v27.515c0,10.98,8.538,20.332,19.511,20.722
	c11.52,0.41,20.989-8.808,20.989-20.237v-28v-1.024c0-2.673,2.167-4.841,4.841-4.841h7.794c36.263,0,153.556,0,190.23,0
	c22.104,0,40.072-17.707,40.492-39.711C424.977,242.178,405.959,223.593,383.25,223.593z"/>
<path style="fill:#FBB659;" d="M174.835,264.883c-0.434-22.705,18.583-41.289,41.293-41.289c-20.989,0-66.546,0-87.507,0
	c-22.709,0-41.727,18.585-41.292,41.289c0.421,22.003,18.389,39.711,40.492,39.711h8.05c2.659,0,4.815,2.156,4.815,4.815v1.05
	v27.515c0,10.98,8.538,20.332,19.511,20.722c11.52,0.41,20.989-8.808,20.989-20.237v-28v-1.024c0-2.673,2.167-4.841,4.841-4.841
	h7.794h21.507C193.224,304.593,175.256,286.886,174.835,264.883z"/>
<path style="fill:#DB9E82;" d="M349.75,142.593c-12.469,0-192.922,0-187.629,0c-22.709,0-41.727,18.584-41.293,41.289
	c0.421,22.003,18.389,39.71,40.493,39.71c12.731,0,110.137,0,123.23,0h4.896c1.721,0,3.117,1.396,3.117,3.117v3.748v26.515
	c0,10.98,8.538,20.332,19.511,20.722c11.52,0.41,20.989-8.808,20.989-20.237v-27v-3.574c0-1.818,1.473-3.291,3.291-3.291h14.196
	c22.104,0,40.072-17.707,40.492-39.71C391.477,161.178,372.459,142.593,349.75,142.593z"/>
<path style="fill:#C9886F;" d="M174.828,183.883c-0.434-22.705,18.583-41.289,41.292-41.289h-54
	c-22.709,0-41.727,18.584-41.292,41.289c0.421,22.003,18.389,39.711,40.492,39.711h54
	C193.217,223.593,175.249,205.886,174.828,183.883z"/>
<circle style="fill:#FA6487;" cx="255.94" cy="91.02" r="52.573"/>
<path style="fill:#E64B78;" d="M253.028,123.062c-25.145-14.518-33.761-46.671-19.243-71.816c2.375-4.115,5.23-7.777,8.442-10.978
	c-12.955,3.499-24.581,11.926-31.822,24.465c-14.518,25.145-5.902,57.298,19.243,71.816c21.031,12.142,46.957,8.093,63.374-8.266
	C280,131.802,265.634,130.34,253.028,123.062z"/>
<g>
	<path style="fill:#CE604E;" d="M195.861,362.195c-7.456,0-13.5,6.044-13.5,13.5c0,31.061,0,57.095,0,88.307
		c0,7.456,6.044,13.5,13.5,13.5s13.5-6.044,13.5-13.5c0-31.17,0-57.225,0-88.307C209.361,368.24,203.317,362.195,195.861,362.195z"
		/>
	<path style="fill:#CE604E;" d="M255.935,362.195c-7.456,0-13.5,6.044-13.5,13.5c0,31.061,0,57.095,0,88.307
		c0,7.456,6.044,13.5,13.5,13.5s13.5-6.044,13.5-13.5c0-31.061,0-57.095,0-88.307C269.435,368.24,263.391,362.195,255.935,362.195z"
		/>
	<path style="fill:#CE604E;" d="M316.009,362.195c-7.456,0-13.5,6.044-13.5,13.5c0,31.17,0,57.225,0,88.307
		c0,7.456,6.044,13.5,13.5,13.5s13.5-6.044,13.5-13.5c0-31.061,0-57.095,0-88.307C329.509,368.24,323.465,362.195,316.009,362.195z"
		/>
</g>
<g>
	<path style="fill:#B74D42;" d="M195.861,423.502c-7.456,0-13.5-6.044-13.5-13.5c0,10.397,0,43.838,0,54
		c0,7.456,6.044,13.5,13.5,13.5s13.5-6.044,13.5-13.5c0-10.168,0-43.577,0-54C209.361,417.458,203.317,423.502,195.861,423.502z"/>
	<path style="fill:#B74D42;" d="M255.935,423.502c-7.456,0-13.5-6.044-13.5-13.5c0,10.397,0,43.838,0,54
		c0,7.456,6.044,13.5,13.5,13.5s13.5-6.044,13.5-13.5c0-10.168,0-43.577,0-54C269.435,417.458,263.391,423.502,255.935,423.502z"/>
	<path style="fill:#B74D42;" d="M316.009,423.502c-7.456,0-13.5-6.044-13.5-13.5c0,10.397,0,43.838,0,54
		c0,7.456,6.044,13.5,13.5,13.5s13.5-6.044,13.5-13.5c0-10.168,0-43.577,0-54C329.509,417.458,323.465,423.502,316.009,423.502z"/>
</g>
<g>
	<circle style="fill:#F98FB0;" cx="279.56" cy="75.24" r="10.576"/>
	<circle style="fill:#F98FB0;" cx="267.29" cy="54.722" r="4.351"/>
</g>
<g>
</g>
<g>
</g>
<g>
</g>
<g>
</g>
<g>
</g>
<g>
</g>
<g>
</g>
<g>
</g>
<g>
</g>
<g>
</g>
<g>
</g>
<g>
</g>
<g>
</g>
<g>
</g>
<g>
</g>
</svg>
