<?xml version="1.0" encoding="iso-8859-1"?>
<!-- Generator: Adobe Illustrator 19.0.0, SVG Export Plug-In . SVG Version: 6.00 Build 0)  -->
<svg version="1.1" id="Capa_1" xmlns="http://www.w3.org/2000/svg" xmlns:xlink="http://www.w3.org/1999/xlink" x="0px" y="0px"
	 viewBox="0 0 512 512" style="enable-background:new 0 0 512 512;" xml:space="preserve">
<circle style="fill:#505E93;" cx="256" cy="256" r="256"/>
<circle style="fill:#FA6487;" cx="255.22" cy="108.36" r="86.14"/>
<path style="fill:#E64B78;" d="M236.039,151.43c-23.785-41.198-9.67-93.878,31.528-117.663c4.963-2.865,10.095-5.168,15.32-6.952
	c-22.663-7.68-48.387-5.953-70.738,6.952c-41.198,23.785-55.313,76.465-31.528,117.663c20.92,36.234,64.189,51.505,102.342,38.479
	C263.854,183.433,246.92,170.276,236.039,151.43z"/>
<path style="fill:#1EA087;" d="M397.604,117.951c-23.848,13.089-51.245,13.447-74.396,3.368c-3.388-1.475-5.352-5.053-4.777-8.704
	c8.615-54.678,66.437-86.413,117.188-64.319c3.388,1.475,5.352,5.053,4.777,8.704C436.466,81.943,421.451,104.862,397.604,117.951z"
	/>
<path style="fill:#198773;" d="M382.621,80.85c17.177-9.428,36.196-12.249,54.144-9.324c1.631-4.723,2.852-9.583,3.631-14.525
	c0.575-3.651-1.389-7.229-4.777-8.704c-50.752-22.095-108.573,9.641-117.188,64.319c-0.575,3.65,1.389,7.229,4.777,8.704
	c6.475,2.819,13.283,4.82,20.252,5.956C350.062,108.164,363.498,91.345,382.621,80.85z"/>
<path style="fill:#28B49B;" d="M264.814,79.272c13.089,23.848,36.008,38.862,60.95,42.792c3.651,0.575,7.229-1.389,8.704-4.777
	C356.564,66.536,324.827,8.714,270.15,0.099c-3.651-0.575-7.229,1.389-8.704,4.777C251.367,28.027,251.726,55.425,264.814,79.272z"
	/>
<path style="fill:#1EA087;" d="M256.709,19.079c1.16-4.86,2.74-9.616,4.737-14.203c1.475-3.388,5.053-5.352,8.704-4.777
	c54.678,8.615,86.413,66.437,64.319,117.188c-1.475,3.388-5.053,5.352-8.704,4.777c-6.976-1.099-13.794-3.067-20.282-5.851
	C315.06,76.073,294.234,35.18,256.709,19.079z"/>
<circle style="fill:#A5E5F9;" cx="310.9" cy="194.51" r="86.14"/>
<path style="fill:#55CEED;" d="M323.25,119.916c4.963-2.865,10.095-5.167,15.32-6.951c-22.663-7.68-48.387-5.953-70.738,6.951
	c-41.198,23.786-55.313,76.465-31.528,117.663c20.92,36.234,64.189,51.505,102.342,38.478
	C269.026,252.464,259.1,156.953,323.25,119.916z"/>
<circle style="fill:#DB9E82;" cx="200.06" cy="194.51" r="86.14"/>
<path style="fill:#C9886F;" d="M212.414,119.916c4.963-2.865,10.095-5.167,15.32-6.951c-22.663-7.68-48.387-5.953-70.738,6.951
	c-41.198,23.786-55.313,76.465-31.528,117.663c20.92,36.234,64.19,51.505,102.342,38.478
	C158.19,252.464,148.265,156.953,212.414,119.916z"/>
<path style="fill:#F7A15F;" d="M198.837,505.586c37.734,8.606,76.487,8.358,112.66,0.363l41.208-152.647H157.726L198.837,505.586z"
	/>
<path style="fill:#D8874E;" d="M202.541,353.303h-44.814l41.11,152.284c14.061,3.207,28.562,5.257,43.399,6.043L202.541,353.303z"/>
<path style="fill:#FBB659;" d="M360.146,359.737H150.195c-9.915,0-18.191-7.565-19.08-17.44l-9.154-101.671
	c0-7.078,5.791-12.87,12.87-12.87h241.304c7.078,0,12.869,5.791,12.869,12.87l-9.098,101.051
	C378.984,351.904,370.413,359.737,360.146,359.737z"/>
<path style="fill:#F7A15F;" d="M183.706,342.298l-9.154-101.671c0-7.078,5.791-12.869,12.87-12.869H134.83
	c-7.078,0-12.87,5.791-12.87,12.869l9.154,101.671c0.889,9.875,9.166,17.44,19.08,17.44h52.592
	C192.872,359.737,184.596,352.173,183.706,342.298z"/>
<path style="fill:#FDD36E;" d="M388.33,206.676c-11.92,0-244.215,0-266.76,0c-11.643,0-21.081,9.438-21.081,21.081
	c0,11.643,9.439,21.082,21.081,21.082c22.404,0,254.823,0,266.76,0c11.643,0,21.081-9.439,21.081-21.082
	C409.411,216.114,399.973,206.676,388.33,206.676z"/>
<path style="fill:#FBB659;" d="M158.402,227.757c0-11.643,9.438-21.081,21.081-21.081H121.57c-11.643,0-21.081,9.438-21.081,21.081
	c0,11.643,9.438,21.082,21.081,21.082h57.913C167.84,248.839,158.402,239.4,158.402,227.757z"/>
<g>
	<path style="fill:#FDD36E;" d="M166.384,332.177c-4.442,0-8.043-3.601-8.043-8.043v-43.613c0-4.443,3.601-8.044,8.043-8.044
		s8.044,3.601,8.044,8.044v43.613C174.428,328.576,170.827,332.177,166.384,332.177z"/>
	<path style="fill:#FDD36E;" d="M210.933,332.177c-4.442,0-8.043-3.601-8.043-8.043v-43.613c0-4.443,3.601-8.044,8.043-8.044
		s8.044,3.601,8.044,8.044v43.613C218.977,328.576,215.375,332.177,210.933,332.177z"/>
	<path style="fill:#FDD36E;" d="M255.482,332.177c-4.442,0-8.044-3.601-8.044-8.043v-43.613c0-4.443,3.601-8.044,8.044-8.044
		c4.442,0,8.044,3.601,8.044,8.044v43.613C263.525,328.576,259.924,332.177,255.482,332.177z"/>
	<path style="fill:#FDD36E;" d="M300.03,332.177c-4.442,0-8.043-3.601-8.043-8.043v-43.613c0-4.443,3.601-8.044,8.043-8.044
		s8.043,3.601,8.043,8.044v43.613C308.074,328.576,304.473,332.177,300.03,332.177z"/>
	<path style="fill:#FDD36E;" d="M344.579,332.177c-4.442,0-8.043-3.601-8.043-8.043v-43.613c0-4.443,3.601-8.044,8.043-8.044
		s8.044,3.601,8.044,8.044v43.613C352.622,328.576,349.021,332.177,344.579,332.177z"/>
</g>
<g>
	<circle style="fill:#C3F1FC;" cx="358.34" cy="161.48" r="12.315"/>
	<circle style="fill:#C3F1FC;" cx="339.11" cy="141.35" r="5.067"/>
</g>
<g>
	<circle style="fill:#EFBAA5;" cx="243.28" cy="161.48" r="12.315"/>
	<circle style="fill:#EFBAA5;" cx="224.04" cy="141.35" r="5.067"/>
</g>
<g>
</g>
<g>
</g>
<g>
</g>
<g>
</g>
<g>
</g>
<g>
</g>
<g>
</g>
<g>
</g>
<g>
</g>
<g>
</g>
<g>
</g>
<g>
</g>
<g>
</g>
<g>
</g>
<g>
</g>
</svg>
