<?xml version="1.0" encoding="iso-8859-1"?>
<!-- Generator: Adobe Illustrator 19.0.0, SVG Export Plug-In . SVG Version: 6.00 Build 0)  -->
<svg version="1.1" id="Capa_1" xmlns="http://www.w3.org/2000/svg" xmlns:xlink="http://www.w3.org/1999/xlink" x="0px" y="0px"
	 viewBox="0 0 512 512" style="enable-background:new 0 0 512 512;" xml:space="preserve">
<circle style="fill:#FDD36E;" cx="256" cy="256" r="256"/>
<rect x="262.68" y="20.317" transform="matrix(-0.1827 -0.9832 0.9832 -0.1827 157.0952 476.2151)" style="fill:#F98FB0;" width="27.611" height="304.989"/>
<polygon style="fill:#FA6487;" points="203.869,172.264 124.061,187.098 129.106,214.243 203.869,200.347 "/>
<path style="fill:#F98FB0;" d="M116.319,59.142c-6.844,1.185-11.842,7.122-11.842,14.068V397.3h27.609V157.507l283.44-52.684
	v234.798h27.609c0-6.476,0-334.559,0-332.7c0-4.328-3.928-7.593-8.183-6.802C102.41,61.932,116.135,59.174,116.319,59.142z"/>
<g>
	<path style="fill:#FA6487;" d="M203.869,43.071c-6.399,1.175,27.344-5.019-87.55,16.071c-6.844,1.184-11.842,7.122-11.842,14.068
		V397.3h27.609V157.507l71.784-13.343L203.869,43.071L203.869,43.071z"/>
	<path style="fill:#FA6487;" d="M25.19,366.871C41.133,400,64.007,429.159,91.919,452.493c35.203-11.321,50.79-52.147,32.421-83.964
		C102.431,330.581,48.058,330.079,25.19,366.871z"/>
</g>
<path style="fill:#E64B78;" d="M74.274,339.628c-21.398-0.022-39.071,11.263-49.054,27.307
	c15.938,33.096,38.795,62.228,66.682,85.543c13.01-4.099,24.766-12.828,32.434-26.141C79.829,426.292,52.066,378.184,74.274,339.628
	z"/>
<circle style="fill:#F98FB0;" cx="385.32" cy="339.62" r="57.816"/>
<path style="fill:#FA6487;" d="M385.322,281.812c-44.14-0.046-72.42,48.011-50.073,86.717
	c22.346,38.704,78.106,38.239,100.135-0.007C390.871,368.476,363.118,320.362,385.322,281.812z"/>
<g>
</g>
<g>
</g>
<g>
</g>
<g>
</g>
<g>
</g>
<g>
</g>
<g>
</g>
<g>
</g>
<g>
</g>
<g>
</g>
<g>
</g>
<g>
</g>
<g>
</g>
<g>
</g>
<g>
</g>
</svg>
