<?xml version="1.0" encoding="iso-8859-1"?>
<!-- Generator: Adobe Illustrator 19.0.0, SVG Export Plug-In . SVG Version: 6.00 Build 0)  -->
<svg version="1.1" id="Capa_1" xmlns="http://www.w3.org/2000/svg" xmlns:xlink="http://www.w3.org/1999/xlink" x="0px" y="0px"
	 viewBox="0 0 511.992 511.992" style="enable-background:new 0 0 511.992 511.992;" xml:space="preserve">
<circle style="fill:#55CEED;" cx="255.996" cy="255.997" r="255.957"/>
<path style="fill:#FA6487;" d="M376.488,441.662c-0.096-0.028-5.433-1.603-5.338-1.575l-78.398-19.469c0-9.492,0-17.918,0-32.354
	c-0.085,0.04-0.17,0.076-0.256,0.115v-0.009c-0.005,0.003-0.013,0.006-0.02,0.009v-0.115c-22.341,10.36-48.953,11.13-72.954,0v0.115
	l0,0c-0.007-0.003-0.014-0.006-0.021-0.009v0.009l0,0c-0.084-0.039-0.17-0.075-0.254-0.115v30.128l-78.399,21.694l0,0
	c-1.873,0.553-5.573,1.645-5.337,1.575c-7.153,2.669-19.556,9.411-24.801,25.069c90.537,62.276,205.849,58.376,290.593,0.042
	C396.066,451.084,383.646,444.332,376.488,441.662z"/>
<path style="fill:#EAB689;" d="M240.99,471.005c8.369,8.353,21.853,8.565,30.479,0.477l47.349-44.391l-11.071-2.75
	c-8.81-2.188-14.995-10.097-14.995-19.174v-18.799c-0.085,0.04-0.17,0.076-0.256,0.115v-0.009c-0.006,0.003-0.013,0.007-0.02,0.009
	v-0.115c-22.341,10.36-48.953,11.13-72.955,0v0.115l0,0c-0.007-0.003-0.014-0.006-0.02-0.009v0.009l0,0
	c-0.084-0.039-0.17-0.075-0.254-0.115v32.024l-24.245,6.709L240.99,471.005z"/>
<path style="fill:#DBA77F;" d="M243.234,393.472c-8.348-1.245-16.31-3.669-23.712-7.103v0.115l0,0
	c-0.007-0.003-0.014-0.006-0.02-0.009v0.009l0,0c-0.084-0.039-0.17-0.075-0.254-0.115v17.118c0,8.808-5.877,16.531-14.366,18.881
	l-9.879,2.734c48.356,48.135,45.699,45.903,48.232,47.83v-79.46H243.234z"/>
<path style="fill:#AD6F5C;" d="M364.932,315.763c5.53-13.617,8.583-28.502,8.583-44.106c-0.012-28.093,0.025-26.757-0.035-28.486
	c-1.455-63.575-52.941-115.581-116.842-115.803c-64.971-0.226-117.713,52.369-117.713,117.294v2.162
	c0.997,15.778-3.625,38.382,8.96,68.938c0,0,46.308,36.331,108.115,36.331S364.932,315.763,364.932,315.763z"/>
<path style="fill:#995C4F;" d="M178.027,315.763c-10.609-25.759-8.961-41.395-8.961-71.1c0-59.668,44.548-108.916,102.193-116.325
	c-69.852-9.061-132.336,45.315-132.336,116.325v2.162c0.997,15.778-3.625,38.382,8.96,68.938c0,0,11.286,8.85,30.143,17.814V315.763
	z"/>
<path style="fill:#AD6F5C;" d="M369.236,338.787c-0.679,0.554-1.431,1.057-2.26,1.477c-21.753,10.926-21.155,10.998-23.546,11.622
	c-1.738,32.229,31.356,75.445,49.778,66.094C411.989,408.448,395.809,356.1,369.236,338.787z"/>
<path style="fill:#995C4F;" d="M360.939,343.328c-15.223,7.617-15.15,7.942-17.508,8.558c-1.738,32.229,31.356,75.445,49.778,66.094
	c3.279-1.665,5.545-4.864,6.82-9.121C380.81,402.718,360.152,368.486,360.939,343.328z"/>
<path style="fill:#AD6F5C;" d="M143.202,338.787c0.679,0.554,1.431,1.057,2.26,1.477c21.753,10.926,21.155,10.998,23.546,11.622
	c1.738,32.229-31.356,75.445-49.778,66.094C100.45,408.448,116.628,356.1,143.202,338.787z"/>
<path style="fill:#995C4F;" d="M160.031,347.66c-14.7-7.572-14.947-7.338-16.829-8.872c-27.061,17.632-42.388,69.846-23.972,79.194
	c3.601,1.828,7.974,1.58,12.629-0.355C125.07,399.498,139.334,363.046,160.031,347.66z"/>
<path style="fill:#FF6536;" d="M371.871,326.54L371.871,326.54c-3.12-5.089-3.696-10.596-9.889-12.62
	c-6.476-2.113-10.107,2.321-18.968,6.144c-0.697,4.962-1.616,9.212-2.921,13.54c-2.798,9.277-6.253,15.194-6.431,15.581
	c0.095,0.049,5.34,5.901,12.546,2.243l21.019-10.669C372.428,338.119,374.511,331.74,371.871,326.54z"/>
<path style="fill:#F25430;" d="M347.31,328.647L347.31,328.647c-1.708-3.492-1.636-7.401-0.14-10.691l-4.156,2.11
	c-0.697,4.962-1.616,9.212-2.921,13.54c-2.798,9.277-6.253,15.194-6.431,15.581c0.095,0.049,5.34,5.901,12.546,2.243l14.252-7.234
	C351.538,342.425,350.808,334.301,347.31,328.647z"/>
<path style="fill:#FF6536;" d="M169.457,320.31l-0.034-0.246c-8.839-3.814-12.501-8.255-18.967-6.144
	c-6.209,2.029-6.8,7.58-9.889,12.62c-2.64,5.2-0.557,11.578,4.644,14.219c20.77,10.151,21.466,11.817,25.8,11.817
	c4.949,0,7.614-3.287,7.766-3.39C176.454,344.134,171.641,336.147,169.457,320.31z"/>
<path style="fill:#F25430;" d="M159.604,336.337c3.541-5.929,4.103-11.26,10.196-13.764c-0.292-1.831-0.344-2.283-0.376-2.508
	c-8.839-3.814-12.501-8.255-18.967-6.144c-6.209,2.029-6.8,7.58-9.889,12.62c-2.64,5.2-0.557,11.578,4.644,14.219l15.321,7.777
	C158.064,345.07,157.548,340.386,159.604,336.337z"/>
<g>
	<path style="fill:#EAB689;" d="M140.744,273.667c0,12.678,14.168,22.953,29.305,22.953v-45.904
		C154.912,250.716,140.744,260.991,140.744,273.667z"/>
	<path style="fill:#EAB689;" d="M371.697,273.667c0,12.678-14.168,22.953-29.306,22.953v-45.904
		C357.53,250.716,371.697,260.991,371.697,273.667z"/>
</g>
<g>
	<path style="fill:#DBA77F;" d="M143.526,264.189c-9.635,15.773,7.067,32.432,26.524,32.432v-18.959
		C158.95,277.661,148.38,272.133,143.526,264.189z"/>
	<path style="fill:#DBA77F;" d="M342.391,277.661v18.959c19.544,0,36.119-16.728,26.525-32.432
		C364.063,272.133,353.492,277.661,342.391,277.661z"/>
</g>
<path style="fill:#FECD9C;" d="M331.515,243.585h-32.183c-14.965,0-28.457-9.018-34.179-22.846l0,0
	c-3.599-8.699-15.851-8.889-19.719-0.306c-0.081,0.095-8.766,23.153-34.613,23.153h-29.9c-7.054,0-12.772,5.718-12.772,12.772
	v51.909c0,70.801,79.582,112.349,137.63,72.798c24.02-16.397,38.508-43.452,38.508-72.798v-51.91
	C344.287,249.303,338.569,243.585,331.515,243.585z"/>
<path style="fill:#EAB689;" d="M267.878,395.649c0.064-0.043,0.126-0.081,0.19-0.124c-43.27-5.823-76.219-42.848-76.219-87.258
	v-51.909c0-7.054,5.718-12.772,12.772-12.772c-25.577,0.023-25.989-0.522-29.786,1.542c-4.07,2.212-6.684,6.478-6.684,11.23v51.909
	C168.151,364.418,218.207,402.161,267.878,395.649z"/>
<path style="fill:#FDD36E;" d="M264.766,5.473c-4.089-7.306-13.665-7.296-17.742,0.019l-100.489,180.32H365.71
	C361.57,178.417,262.308,1.08,264.766,5.473z"/>
<g>
	<path style="fill:#FBB659;" d="M264.766,5.473c-4.089-7.306-13.665-7.296-17.742,0.019l-100.489,180.32h39.696l89.541-160.675
		L264.766,5.473z"/>
	<path style="fill:#FBB659;" d="M238.878,144.109c-17.32-11.109-29.982-10.677-40.151-10.337
		c-7.436,0.255-13.136,0.427-21.157-3.646l-14.283,25.629c28.957,16.397,40.047,0.188,62.094,14.327
		c7.364,4.723,11.504,10.033,14.777,15.732h31.316C263.504,173.266,261.511,158.624,238.878,144.109z"/>
</g>
<path style="fill:#F7A15F;" d="M198.727,133.771c-7.436,0.255-13.136,0.427-21.157-3.646l-14.283,25.629
	c14.792,8.376,26.02,8.32,35.223,8.026l16.358-29.353C208.793,133.433,203.487,133.612,198.727,133.771z"/>
<path style="fill:#FBB659;" d="M264.817,101.311c22.897,14.686,14.639,35.037,45.992,55.147
	c19.303,12.381,32.443,10.368,44.197,10.232l-16.983-30.341c-4.052-0.757-8.336-2.412-13.716-5.863
	c-22.897-14.686-14.638-35.037-45.992-55.147c-17.32-11.109-29.982-10.677-40.151-10.338c-7.704,0.264-13.535,0.458-22.026-4.086
	l-14.26,25.587C231.43,103.725,242.488,86.992,264.817,101.311z"/>
<path style="fill:#F7A15F;" d="M216.139,60.916l-14.26,25.587c14.603,8.511,25.768,8.798,34.936,8.542l16.464-29.543
	C237.734,63.258,229.881,68.272,216.139,60.916z"/>
<path style="fill:#69739B;" d="M389.833,180.692c-273.033,0,35.902,0-267.67,0c-2.639,0-4.376,2.779-3.203,5.142
	c4.625,9.32,9.754,17.638,15.301,24.772c0.672,0.864,1.712,1.358,2.806,1.358h5.082c248.409,0,233.944,0.754,235.586-1.358
	c5.547-7.134,10.676-15.451,15.3-24.772C394.21,183.47,392.472,180.692,389.833,180.692z"/>
<path style="fill:#505E93;" d="M184.753,210.605c-5.547-7.134-10.676-15.451-15.301-24.772c-1.173-2.364,0.565-5.142,3.203-5.142
	c-15.772,0-34.724,0-50.492,0c-2.639,0-4.376,2.779-3.203,5.142c4.625,9.32,9.754,17.638,15.301,24.772
	c0.672,0.864,1.712,1.358,2.806,1.358h5.082c7.548,0,26.638,0,45.409,0C186.465,211.963,185.425,211.469,184.753,210.605z"/>
<path style="fill:#E64B78;" d="M172.278,431.39l-31.431,8.698l0,0c-1.873,0.553-5.573,1.645-5.337,1.575
	c-7.153,2.669-19.556,9.411-24.801,25.069c16.672,11.468,34.459,20.869,53.279,28.144
	C158.159,473.777,160.838,450.887,172.278,431.39z"/>
<g>
</g>
<g>
</g>
<g>
</g>
<g>
</g>
<g>
</g>
<g>
</g>
<g>
</g>
<g>
</g>
<g>
</g>
<g>
</g>
<g>
</g>
<g>
</g>
<g>
</g>
<g>
</g>
<g>
</g>
</svg>
