<?xml version="1.0" encoding="iso-8859-1"?>
<!-- Generator: Adobe Illustrator 19.0.0, SVG Export Plug-In . SVG Version: 6.00 Build 0)  -->
<svg version="1.1" id="Capa_1" xmlns="http://www.w3.org/2000/svg" xmlns:xlink="http://www.w3.org/1999/xlink" x="0px" y="0px"
	 viewBox="0 0 512 512" style="enable-background:new 0 0 512 512;" xml:space="preserve">
<circle style="fill:#28B49B;" cx="256" cy="256" r="256"/>
<path style="fill:#FA6487;" d="M256,47.157L70.369,432.28c4.649,4.894,9.494,9.598,14.514,14.113h342.235
	c5.02-4.515,9.865-9.219,14.514-14.113L256,47.157z"/>
<path style="fill:#E64B78;" d="M269.056,74.244L256,47.157L70.369,432.28c4.649,4.894,9.494,9.598,14.514,14.113h70.369
	c-9.591-11.445-11.68-26.541-6.942-39.59L269.056,74.244z"/>
<path style="fill:#55CEED;" d="M322.333,184.777c-2.679-0.876-5.571-2.173-8.877-4.083c-22.901-13.223-14.64-31.546-46-49.651
	c-21.491-12.408-35.674-8.788-47.43-9.252l-12.316,25.551c20.632,4.584,27.796-3.568,46.246,7.083
	c22.9,13.222,14.641,31.546,45.999,49.651c15.152,8.748,26.739,9.547,36.214,9.406L322.333,184.777z"/>
<path style="fill:#69C1E8;" d="M220.026,121.791l-12.316,25.551c14.256,3.167,24.102-0.059,34.044,2.097l9.256-25.493
	C238.107,120.305,228.441,122.122,220.026,121.791z"/>
<path style="fill:#E64B78;" d="M387.449,319.87c-31.021-11.69-19.13-33.444-53.332-53.191
	c-31.378-18.117-43.081-1.779-65.996-15.009c-22.901-13.221-14.637-31.545-45.996-49.65c-15.165-8.755-26.757-9.552-36.235-9.407
	l-13.061,27.098c14.266,0.719,21.163-2.756,35.796,5.692c22.901,13.222,14.637,31.544,45.996,49.65
	c17.323,10.002,29.984,9.616,40.158,9.307c8.804-0.271,15.163-0.462,25.838,5.702c22.901,13.222,14.64,31.546,45.999,49.651
	c14.48,8.361,25.702,9.462,34.937,9.419L387.449,319.87z"/>
<path style="fill:#DB5670;" d="M185.889,192.613c-4.382,9.09-10.772,22.349-13.061,27.098c14.839,0.748,23.658-3.305,40.296,8.579
	l9.443-26.009C209.63,194.704,198.833,192.414,185.889,192.613z"/>
<path style="fill:#EECE9F;" d="M429.563,444.151c-6.034-9.695-10.151-23.814-31.561-36.175
	c-17.323-10.001-29.985-9.613-40.159-9.308c-8.802,0.271-15.163,0.462-25.838-5.702c-22.901-13.222-14.64-31.546-46-49.651
	c-17.323-10.002-29.987-9.613-40.158-9.308c-8.804,0.271-15.163,0.461-25.838-5.702c-22.9-13.221-14.637-31.545-45.996-49.649
	c-9.797-5.656-18.101-7.989-25.309-8.894l-12.791,26.536c8.175-0.238,14.433-0.13,24.6,5.74
	c22.9,13.221,14.638,31.544,45.996,49.649c17.323,10.002,29.985,9.611,40.159,9.308c8.801-0.271,15.162-0.461,25.838,5.702
	c22.901,13.222,14.641,31.546,46,49.651c17.323,10.002,29.985,9.611,40.159,9.308c8.807-0.271,15.165-0.461,25.839,5.702
	c8.501,4.909,12.143,9.466,15.38,15.034h27.236C427.94,445.653,428.75,444.901,429.563,444.151z"/>
<path style="fill:#E5BC85;" d="M148.703,269.762c-3.002,6.229-10.18,21.12-12.791,26.536c8.175-0.238,14.433-0.13,24.6,5.74
	c10.496,6.059,13.373,11.213,18.388,20.511l11.36-31.288C180.564,280.945,164.487,271.743,148.703,269.762z"/>
<path style="fill:#28B49B;" d="M237.676,420.451c-17.324-10.002-29.986-9.612-40.159-9.308c-8.805,0.27-15.163,0.461-25.837-5.701
	c-22.901-13.222-14.637-31.544-45.996-49.65c-5.518-3.185-10.561-5.314-15.203-6.731l-11.975,24.843
	c4.041,0.684,8.315,2.175,13.677,5.27c22.901,13.222,14.637,31.545,45.996,49.65c33.191,19.162,44.51-0.199,70.036,17.568h35.312
	C258.936,438.28,252.395,428.949,237.676,420.451z"/>
<path style="fill:#1EA087;" d="M155.062,388.204c-6.123-11.183-11.451-22.062-29.379-32.413c-5.518-3.185-10.561-5.314-15.203-6.731
	l-11.975,24.843c4.041,0.684,8.315,2.175,13.677,5.27c19.822,11.444,15.333,24.556,33.702,40.885
	C146.04,409.362,149.855,403.859,155.062,388.204z"/>
<path style="fill:#A5E5F9;" d="M58.926,419.393c17.548,21.142,38.439,39.405,61.854,54h270.44
	c23.415-14.595,44.306-32.858,61.854-54H58.926z"/>
<path style="fill:#FBB659;" d="M261.533,3.439l9.593,19.437c0.899,1.821,2.636,3.083,4.645,3.375l21.45,3.117
	c5.061,0.735,7.081,6.954,3.419,10.524l-15.521,15.129c-1.454,1.417-2.118,3.46-1.774,5.461l3.664,21.363
	c0.864,5.04-4.426,8.884-8.952,6.504l-19.185-10.086c-1.797-0.945-3.945-0.945-5.742,0l-19.185,10.086
	c-4.526,2.38-9.816-1.464-8.952-6.504l3.664-21.363c0.343-2.001-0.32-4.044-1.774-5.461L211.36,39.892
	c-3.662-3.569-1.641-9.788,3.419-10.524l21.449-3.117c2.01-0.292,3.747-1.554,4.646-3.375l9.593-19.437
	C252.73-1.146,259.27-1.146,261.533,3.439z"/>
<path style="fill:#F7A15F;" d="M251.992,73.095l3.664-21.363c0.343-2.001-0.32-4.044-1.774-5.461L238.36,31.142
	c-1.442-1.406-1.992-3.222-1.832-4.953c-0.682,0.135,1.808-0.259-21.748,3.179c-5.061,0.735-7.081,6.954-3.419,10.524l15.521,15.129
	c1.454,1.417,2.118,3.46,1.774,5.461l-3.664,21.363c-0.864,5.04,4.426,8.884,8.952,6.504c10.072-5.288,18.849-9.925,19.446-10.203
	C252.262,76.842,251.654,75.063,251.992,73.095z"/>
<path style="fill:#55CEED;" d="M145.912,419.393H58.926c17.548,21.142,38.439,39.405,61.854,54h25.132
	C121.19,463.864,121.226,428.908,145.912,419.393z"/>
<path style="fill:#E8F7F9;" d="M76.725,438.726h358.549c6.255-6.135,12.199-12.586,17.8-19.333H58.926
	C64.526,426.14,70.471,432.591,76.725,438.726z"/>
<path style="fill:#A5E5F9;" d="M76.725,438.726h51.702c2.438-8.879,8.985-16.057,17.485-19.333H58.926
	C68.012,430.34,76.318,438.303,76.725,438.726z"/>
<g>
	<circle style="fill:#F98FB0;" cx="238.19" cy="180.27" r="12.94"/>
	<circle style="fill:#F98FB0;" cx="193.52" cy="258.23" r="12.94"/>
	<circle style="fill:#F98FB0;" cx="148.85" cy="336.19" r="12.94"/>
	<path style="fill:#F98FB0;" d="M343.057,227.771c-5.467,1.513-9.487,6.511-9.487,12.46c0,7.146,5.793,12.94,12.94,12.94
		c2.842,0,5.461-0.927,7.595-2.479L343.057,227.771z"/>
	<circle style="fill:#F98FB0;" cx="301.84" cy="318.19" r="12.94"/>
	<circle style="fill:#F98FB0;" cx="257.18" cy="396.15" r="12.94"/>
	<circle style="fill:#F98FB0;" cx="281.85" cy="224.29" r="12.94"/>
	<circle style="fill:#F98FB0;" cx="237.19" cy="302.25" r="12.94"/>
	<circle style="fill:#F98FB0;" cx="192.52" cy="380.21" r="12.94"/>
	<circle style="fill:#F98FB0;" cx="347.4" cy="364.27" r="12.94"/>
</g>
<g>
</g>
<g>
</g>
<g>
</g>
<g>
</g>
<g>
</g>
<g>
</g>
<g>
</g>
<g>
</g>
<g>
</g>
<g>
</g>
<g>
</g>
<g>
</g>
<g>
</g>
<g>
</g>
<g>
</g>
</svg>
