<?xml version="1.0" encoding="iso-8859-1"?>
<!-- Generator: Adobe Illustrator 19.0.0, SVG Export Plug-In . SVG Version: 6.00 Build 0)  -->
<svg version="1.1" id="Capa_1" xmlns="http://www.w3.org/2000/svg" xmlns:xlink="http://www.w3.org/1999/xlink" x="0px" y="0px"
	 viewBox="0 0 512.001 512.001" style="enable-background:new 0 0 512.001 512.001;" xml:space="preserve">
<circle style="fill:#FF4F6F;" cx="256" cy="256" r="256"/>
<path style="fill:#FDD36E;" d="M208.56,213.601v-38.337c0-10.705,5.677-20.127,14.153-25.472
	c-40.27-23.45-107.448-57.966-159.77-61.907C19.158,138.124-3.45,203.181,0.443,270.91c29.934,46.977,96.852,62.309,223.092-31.336
	C214.606,234.332,208.56,224.65,208.56,213.601z"/>
<path style="fill:#FBB659;" d="M13.407,264.542c11.724-27.33,44.113-37.696,82.322-39.301l1.036-2.046l-12.07-18.967
	c-22.097-34.725-19.865-79.616,5.567-111.977c-9.39-2.176-18.565-3.707-27.32-4.366C19.158,138.124-3.45,203.181,0.443,270.91
	c2.51,3.94,5.298,7.639,8.342,11.088C9.748,275.402,11.283,269.492,13.407,264.542z"/>
<path style="fill:#FDD36E;" d="M449.057,87.885c-52.322,3.94-119.5,38.457-159.77,61.907c8.475,5.345,14.153,14.767,14.153,25.472
	v38.337c0,11.049-6.046,20.731-14.976,25.973c126.24,93.645,193.159,78.313,223.093,31.335
	C515.441,203.281,492.913,138.205,449.057,87.885z"/>
<g>
	<path style="fill:#FBB659;" d="M503.463,281.753c-0.936-7.309-2.559-13.824-4.87-19.21c-24.488-57.084-139.11-40.186-208.68-23.948
		c-0.485,0.324-0.945,0.684-1.449,0.98C404.385,325.564,470.285,319.664,503.463,281.753z"/>
	<path style="fill:#FBB659;" d="M303.44,175.264v38.337c0,10.369-5.325,19.534-13.362,24.955
		c29.313-6.835,66.587-13.777,101.745-15.259l0,0c-62.65-38.962-32.335-109.545-32.334-109.547
		c-26.451,11.58-51.293,25.03-70.202,36.041C297.762,155.136,303.44,164.558,303.44,175.264z"/>
</g>
<path style="fill:#F7A15F;" d="M361.978,279.084c-5.715-11.376-3.158-27.487,6.103-38.363c0.044-0.052,0.089-0.104,0.133-0.156
	c6.949-8.11,14.915-13.714,23.609-17.268c-35.223,1.485-72.573,8.45-101.91,15.297c-0.485,0.324-0.945,0.684-1.449,0.98
	c29.531,21.906,55.808,37.836,79.132,48.805C365.483,285.445,363.614,282.341,361.978,279.084z"/>
<path style="fill:#FBB659;" d="M8.537,281.753c0.936-7.309,2.559-13.824,4.87-19.21c24.488-57.084,139.11-40.186,208.679-23.948
	c0.486,0.324,0.945,0.684,1.449,0.98C107.614,325.564,41.715,319.664,8.537,281.753z"/>
<path style="fill:#F7A15F;" d="M73.838,284.975c-20.755-14.293-13.322-46.679,22.927-61.779
	c-38.66,1.46-71.529,11.769-83.359,39.347c-2.311,5.387-3.934,11.901-4.87,19.21c21.601,24.682,57.077,35.784,111.19,16.806
	C101.177,298.387,86.023,293.366,73.838,284.975z"/>
<path style="fill:#FBB659;" d="M452.725,375.776c-34.205-18.483-117.733-67.637-152.537-156.161
	c-1.14,42.639-7.961,112.945-36.61,180.092c18.745,29.736,42.345,58,72.02,81.076c4.012,3.12,9.906,0.741,10.642-4.287
	l11.202-76.528c0.722-4.931,4.786-8.69,9.758-9.025l83.457-5.627C455.743,384.973,457.21,378.199,452.725,375.776z"/>
<g>
	<path style="fill:#F7A15F;" d="M301.439,222.705c-0.421-1.027-0.844-2.053-1.251-3.09c-0.042,1.561-0.094,3.17-0.151,4.804
		C300.496,223.847,300.966,223.276,301.439,222.705z"/>
	<path style="fill:#F7A15F;" d="M282.417,344.864c-4.887,18.102-11.051,36.587-18.84,54.842
		c18.744,29.735,42.344,57.998,72.018,81.074c4.013,3.121,9.907,0.744,10.644-4.285l4.849-33.125
		C322.685,415.631,296.326,383.23,282.417,344.864z"/>
</g>
<path style="fill:#FDD36E;" d="M299.593,200.136h-96.034c0,118.758-93.91,197.904-129.418,225.566
	c-4.022,3.133-1.453,9.57,3.62,9.065l83.236-8.274c4.959-0.493,9.59,2.541,11.118,7.284l23.723,73.616
	c1.559,4.837,7.765,6.206,11.205,2.465C315.249,392.165,299.593,200.136,299.593,200.136z"/>
<path style="fill:#FBB659;" d="M77.76,434.767l61.878-6.151c26.291-22.622,51.752-51.793,68.787-88.612
	c12.745-27.547,40.503-45.031,70.856-45.031h16.81c6.767-54.757,3.502-94.837,3.502-94.837h-96.034
	c0,118.764-93.918,197.912-129.423,225.57C70.117,428.836,72.691,435.271,77.76,434.767z"/>
<path style="fill:#FDD36E;" d="M280.826,129.645h-49.652c-21.456,0-39.011,17.555-39.011,39.011c0,34.542,0,24.501,0,58.343
	c0,21.456,17.555,39.011,39.011,39.011h49.652c21.456,0,39.011-17.555,39.011-39.011v-8.691c0-21.604,0-26.946,0-49.652
	C319.837,147.2,302.282,129.645,280.826,129.645z"/>
<path style="fill:#F7A15F;" d="M246.163,218.308c0-12.94,0-26.443,0-40.961l0,0c0-23.913,17.836-43.856,40.86-47.201
	c-2.02-0.326-4.089-0.501-6.197-0.501h-49.652c-21.456,0-39.011,17.555-39.011,39.011c0,34.542,0,24.502,0,58.344
	c0,21.456,17.555,39.011,39.011,39.011c51.007-0.166,50.401,0.378,55.849-0.501C263.999,262.164,246.163,242.222,246.163,218.308z"
	/>
<g>
</g>
<g>
</g>
<g>
</g>
<g>
</g>
<g>
</g>
<g>
</g>
<g>
</g>
<g>
</g>
<g>
</g>
<g>
</g>
<g>
</g>
<g>
</g>
<g>
</g>
<g>
</g>
<g>
</g>
</svg>
