<?xml version="1.0" encoding="iso-8859-1"?>
<!-- Generator: Adobe Illustrator 19.0.0, SVG Export Plug-In . SVG Version: 6.00 Build 0)  -->
<svg version="1.1" id="Capa_1" xmlns="http://www.w3.org/2000/svg" xmlns:xlink="http://www.w3.org/1999/xlink" x="0px" y="0px"
	 viewBox="0 0 512.002 512.002" style="enable-background:new 0 0 512.002 512.002;" xml:space="preserve">
<circle style="fill:#FDD36E;" cx="256.001" cy="256" r="256"/>
<path style="fill:#FA6487;" d="M350.036,190.696l-37.425,10.028l-105.094,28.16l-37.425,10.028
	c-21.374,5.727-34.177,27.901-28.449,49.276l0,0c5.727,21.374,27.901,34.177,49.276,28.449l37.425-10.028
	c18.981-5.086,127.196-34.082,142.519-38.188c21.374-5.727,34.177-27.901,28.449-49.276l0,0
	C393.585,197.771,371.411,184.969,350.036,190.696z"/>
<path style="fill:#F98FB0;" d="M196.306,75.612c0.437,9.356,3.282,16.405,6.908,21.673c9.143-2.45,69.786-18.699,82.381-22.074
	c0.251-0.067,0.503-0.12,0.754-0.183c4.519-44.986-29.719-66.335-48.741-74.631c-3.587-1.565-7.273,1.745-6.236,5.519
	C237.712,28.998,195.131,50.497,196.306,75.612z"/>
<g>
	<path style="fill:#FA6487;" d="M226.776,83.612c-1.148-24.553,39.515-45.65,35.411-68.149
		c-8.456-7.156-17.555-12.002-24.579-15.065c-3.587-1.565-7.273,1.745-6.236,5.519c6.341,23.082-36.24,44.581-35.066,69.696
		c0.438,9.356,3.282,16.405,6.908,21.673c8.661-2.321,14.347-3.844,24.435-6.547C227.206,88.521,226.895,86.159,226.776,83.612z"/>
	<path style="fill:#FA6487;" d="M285.595,70.442c-10.703,2.868-98.215,26.317-109.831,29.429
		c-21.374,5.727-34.177,27.901-28.449,49.276l0,0c5.727,21.374,27.901,34.177,49.276,28.449
		c3.986-1.068,110.291-29.552,109.965-29.465c21.23-5.688,35.068-27.441,29.182-49.408
		C329.372,75.959,306.332,64.885,285.595,70.442z"/>
</g>
<path style="fill:#E64B78;" d="M268.091,151.02c-21.374,5.727-43.549-7.075-49.276-28.449l0,0
	c-3.537-13.199-0.001-26.698,8.25-36.446c-15.029,4.027-36.212,9.703-51.3,13.746c-21.374,5.727-34.177,27.901-28.449,49.276l0,0
	c5.727,21.374,27.901,34.177,49.276,28.449c11.135-2.984,99.409-26.637,109.965-29.465c8.279-2.218,15.375-6.854,20.643-12.949
	C306.186,140.813,289.089,145.394,268.091,151.02z"/>
<path style="fill:#F98FB0;" d="M321.084,125.359c-42.851,11.482-145.437,38.97-179.944,48.216
	c-21.374,5.727-34.177,27.901-28.449,49.276l0,0c5.727,21.374,27.901,34.177,49.276,28.449l37.425-10.028l105.094-28.16
	l37.425-10.028c21.374-5.727,34.177-27.901,28.449-49.276l0,0C364.632,132.434,342.458,119.631,321.084,125.359z"/>
<path style="fill:#FA6487;" d="M217.357,196.143L217.357,196.143c-5.222-19.488,4.107-39.592,21.243-48.683
	c-10.555,2.828-85.495,22.908-97.461,26.115c-21.374,5.727-34.177,27.901-28.449,49.276l0,0
	c5.727,21.374,27.901,34.177,49.276,28.449l37.425-10.028l52.566-14.085C235.828,224.624,221.838,212.867,217.357,196.143z"/>
<path style="fill:#1EA087;" d="M223.092,213.256c-17.936,17.936-42.37,25.401-65.723,22.415c-3.418-0.437-6.109-3.128-6.546-6.546
	c-6.546-51.196,36.943-94.684,88.138-88.138c3.418,0.437,6.109,3.128,6.546,6.546C248.493,170.887,241.028,195.32,223.092,213.256z"
	/>
<path style="fill:#198773;" d="M200.005,183.949c12.919-12.919,29.21-20.405,46.04-22.466c0.229-4.653,0.054-9.323-0.537-13.95
	c-0.437-3.418-3.128-6.109-6.546-6.546c-51.196-6.546-94.684,36.943-88.138,88.138c0.437,3.418,3.128,6.109,6.546,6.546
	c6.532,0.835,13.148,0.851,19.683,0.051C177.98,216.891,185.622,198.331,200.005,183.949z"/>
<path style="fill:#28B49B;" d="M94.13,213.256c17.936,17.936,42.369,25.401,65.723,22.415c3.418-0.437,6.109-3.128,6.546-6.546
	c6.546-51.196-36.943-94.684-88.138-88.138c-3.418,0.437-6.109,3.128-6.546,6.546C68.729,170.887,76.194,195.32,94.13,213.256z"/>
<path style="fill:#1EA087;" d="M71.178,161.483c-0.229-4.653-0.054-9.323,0.537-13.95c0.437-3.418,3.128-6.109,6.546-6.546
	c51.196-6.546,94.684,36.943,88.138,88.138c-0.437,3.418-3.128,6.109-6.546,6.546c-6.532,0.835-13.148,0.851-19.683,0.051
	C138.277,197.29,108.969,166.112,71.178,161.483z"/>
<path style="fill:#C9886F;" d="M388.831,406.428H123.172c-20.44,0-37.163-16.724-37.163-37.163V263.688
	c0-20.44,16.724-37.163,37.163-37.163h265.659c20.44,0,37.163,16.724,37.163,37.163v105.577
	C425.994,389.705,409.271,406.428,388.831,406.428z"/>
<path style="fill:#BC7964;" d="M212.315,369.265V263.688c0-20.44,16.724-37.163,37.163-37.163H123.172
	c-20.44,0-37.164,16.724-37.164,37.163v105.577c0,20.44,16.724,37.163,37.164,37.163h126.307
	C229.039,406.428,212.315,389.705,212.315,369.265z"/>
<path style="fill:#E8F7F9;" d="M141.023,484.772l-4.006-178.688c0-21.917-17.767-39.684-39.684-39.684S57.65,284.167,57.65,306.084
	l5.852,118.66C85.139,449.407,111.437,469.873,141.023,484.772z"/>
<path style="fill:#C3F1FC;" d="M95.332,306.084c0-15.098,8.432-28.225,20.843-34.932c-26.156-14.136-58.524,4.717-58.524,34.932
	l5.852,118.66c11.395,12.988,24.093,24.798,37.873,35.258L95.332,306.084z"/>
<path style="fill:#55CEED;" d="M176.701,266.401c-21.917,0-39.683,17.767-39.683,39.684l4.006,178.688
	c23.307,11.737,48.648,20.023,75.361,24.174V306.084C216.385,284.168,198.618,266.401,176.701,266.401z"/>
<path style="fill:#17A3BF;" d="M176.701,306.084c0-14.686,7.984-27.499,19.841-34.361c-26.219-15.173-59.525,3.683-59.525,34.361
	l4.006,178.688c12.302,6.195,25.176,11.418,38.513,15.589L176.701,306.084z"/>
<path style="fill:#E8F7F9;" d="M256.068,266.401c-21.917,0-39.684,17.767-39.684,39.684v202.862
	c25.846,4.015,52.688,4.137,79.367-0.022V306.084C295.752,284.168,277.985,266.401,256.068,266.401z"/>
<path style="fill:#C3F1FC;" d="M256.068,364.084v-58c0-14.686,7.984-27.499,19.842-34.361
	c-26.219-15.173-59.525,3.683-59.525,34.361v202.862c13.163,2.045,26.361,3.053,39.684,3.053
	C256.068,511.999,256.068,379.282,256.068,364.084z"/>
<path style="fill:#55CEED;" d="M335.435,266.401c-21.917,0-39.684,17.767-39.684,39.684v202.839
	c26.715-4.165,52.058-12.465,75.363-24.219l4.004-178.621C375.119,284.168,357.352,266.401,335.435,266.401z"/>
<path style="fill:#17A3BF;" d="M335.435,306.084c0-14.686,7.984-27.499,19.841-34.361c-26.219-15.173-59.525,3.683-59.525,34.361
	v202.839c13.614-2.122,26.87-5.325,39.684-9.505V306.084z"/>
<path style="fill:#E8F7F9;" d="M448.642,424.584l5.844-118.5c0-21.917-17.767-39.684-39.684-39.684s-39.684,17.767-39.684,39.684
	l-4.004,178.621C400.71,469.779,427.012,449.281,448.642,424.584z"/>
<path style="fill:#C3F1FC;" d="M414.804,306.084c0-14.685,7.983-27.498,19.841-34.361c-26.223-15.177-59.526,3.684-59.526,34.361
	l-4.004,178.621c14.234-7.178,27.695-15.658,40.252-25.261L414.804,306.084z"/>
<g>
</g>
<g>
</g>
<g>
</g>
<g>
</g>
<g>
</g>
<g>
</g>
<g>
</g>
<g>
</g>
<g>
</g>
<g>
</g>
<g>
</g>
<g>
</g>
<g>
</g>
<g>
</g>
<g>
</g>
</svg>
